<svg width="24" height="24" viewBox="0 0 24 24" fill="none" xmlns="http://www.w3.org/2000/svg">
<path d="M10.2857 4.71429C10.2857 4.37523 10.3862 4.04379 10.5746 3.76188C10.763 3.47997 11.0307 3.26024 11.344 3.13049C11.6572 3.00074 12.0019 2.96679 12.3344 3.03294C12.667 3.09909 12.9724 3.26236 13.2122 3.5021C13.4519 3.74185 13.6152 4.04731 13.6813 4.37985C13.7475 4.71238 13.7135 5.05707 13.5838 5.37032C13.454 5.68356 13.2343 5.95129 12.9524 6.13966C12.6705 6.32803 12.339 6.42857 12 6.42857C11.5453 6.42857 11.1093 6.24796 10.7878 5.92647C10.4663 5.60498 10.2857 5.16894 10.2857 4.71429ZM12 10.2857C11.6609 10.2857 11.3295 10.3863 11.0476 10.5746C10.7657 10.763 10.5459 11.0307 10.4162 11.344C10.2864 11.6572 10.2525 12.0019 10.3186 12.3344C10.3848 12.667 10.5481 12.9724 10.7878 13.2122C11.0276 13.4519 11.333 13.6152 11.6656 13.6813C11.9981 13.7475 12.3428 13.7135 12.656 13.5838C12.9693 13.454 13.237 13.2343 13.4254 12.9524C13.6137 12.6705 13.7143 12.3391 13.7143 12C13.7143 11.5453 13.5337 11.1093 13.2122 10.7878C12.8907 10.4663 12.4546 10.2857 12 10.2857ZM12 17.5714C11.6609 17.5714 11.3295 17.672 11.0476 17.8603C10.7657 18.0487 10.5459 18.3164 10.4162 18.6297C10.2864 18.9429 10.2525 19.2876 10.3186 19.6202C10.3848 19.9527 10.5481 20.2582 10.7878 20.4979C11.0276 20.7376 11.333 20.9009 11.6656 20.9671C11.9981 21.0332 12.3428 20.9993 12.656 20.8695C12.9693 20.7398 13.237 20.52 13.4254 20.2381C13.6137 19.9562 13.7143 19.6248 13.7143 19.2857C13.7143 18.8311 13.5337 18.395 13.2122 18.0735C12.8907 17.752 12.4546 17.5714 12 17.5714Z" fill="#121212"/>
</svg>
