<svg width="24" height="24" viewBox="0 0 24 24" fill="none" xmlns="http://www.w3.org/2000/svg">
<path d="M20.681 12.7653L14.2022 19.2442C13.9993 19.4471 13.7242 19.561 13.4373 19.561C13.1504 19.561 12.8753 19.4471 12.6724 19.2442C12.4696 19.0413 12.3556 18.7662 12.3556 18.4793C12.3556 18.1925 12.4696 17.9173 12.6724 17.7145L17.3075 13.0812H4.07981C3.79343 13.0812 3.51877 12.9674 3.31627 12.7649C3.11377 12.5624 3 12.2877 3 12.0013C3 11.715 3.11377 11.4403 3.31627 11.2378C3.51877 11.0353 3.79343 10.9215 4.07981 10.9215H17.3075L12.6742 6.28554C12.4714 6.08268 12.3574 5.80755 12.3574 5.52067C12.3574 5.23379 12.4714 4.95865 12.6742 4.7558C12.8771 4.55294 13.1522 4.43898 13.4391 4.43898C13.726 4.43898 14.0011 4.55294 14.204 4.7558L20.6828 11.2347C20.7835 11.3351 20.8634 11.4545 20.9178 11.5859C20.9722 11.7173 21.0002 11.8581 21 12.0004C20.9998 12.1426 20.9716 12.2834 20.9168 12.4147C20.8621 12.5459 20.782 12.6651 20.681 12.7653Z" fill="#121212"/>
</svg>
