<svg width="25" height="24" viewBox="0 0 25 24" fill="none" xmlns="http://www.w3.org/2000/svg">
<path d="M19.7674 3H5.36738C4.88999 3 4.43216 3.18964 4.09459 3.52721C3.75703 3.86477 3.56738 4.32261 3.56738 4.8V19.2C3.56738 19.6774 3.75703 20.1352 4.09459 20.4728C4.43216 20.8104 4.88999 21 5.36738 21H19.7674C20.2448 21 20.7026 20.8104 21.0402 20.4728C21.3777 20.1352 21.5674 19.6774 21.5674 19.2V4.8C21.5674 4.32261 21.3777 3.86477 21.0402 3.52721C20.7026 3.18964 20.2448 3 19.7674 3ZM19.4074 18.84H5.72738V5.16H19.4074V18.84Z" fill="#556170"/>
</svg>
