<svg width="31" height="30" viewBox="0 0 31 30" fill="none" xmlns="http://www.w3.org/2000/svg">
<rect x="0.166992" width="30" height="30" rx="15" fill="white"/>
<path d="M21.8337 7.33333H20.1671V7C20.1671 6.73478 20.0617 6.48043 19.8742 6.29289C19.6866 6.10536 19.4323 6 19.1671 6C18.9019 6 18.6475 6.10536 18.46 6.29289C18.2724 6.48043 18.1671 6.73478 18.1671 7V7.33333H12.1671V7C12.1671 6.73478 12.0617 6.48043 11.8742 6.29289C11.6866 6.10536 11.4323 6 11.1671 6C10.9019 6 10.6475 6.10536 10.46 6.29289C10.2724 6.48043 10.1671 6.73478 10.1671 7V7.33333H8.50041C8.05838 7.33333 7.63446 7.50893 7.3219 7.82149C7.00933 8.13405 6.83374 8.55797 6.83374 9V22.3333C6.83374 22.7754 7.00933 23.1993 7.3219 23.5118C7.63446 23.8244 8.05838 24 8.50041 24H21.8337C22.2758 24 22.6997 23.8244 23.0123 23.5118C23.3248 23.1993 23.5004 22.7754 23.5004 22.3333V9C23.5004 8.55797 23.3248 8.13405 23.0123 7.82149C22.6997 7.50893 22.2758 7.33333 21.8337 7.33333ZM10.1671 9.33333C10.1671 9.59855 10.2724 9.8529 10.46 10.0404C10.6475 10.228 10.9019 10.3333 11.1671 10.3333C11.4323 10.3333 11.6866 10.228 11.8742 10.0404C12.0617 9.8529 12.1671 9.59855 12.1671 9.33333H18.1671C18.1671 9.59855 18.2724 9.8529 18.46 10.0404C18.6475 10.228 18.9019 10.3333 19.1671 10.3333C19.4323 10.3333 19.6866 10.228 19.8742 10.0404C20.0617 9.8529 20.1671 9.59855 20.1671 9.33333H21.5004V11.3333H8.83374V9.33333H10.1671ZM8.83374 22V13.3333H21.5004V22H8.83374Z" fill="#556170"/>
</svg>
