<svg width="25" height="24" viewBox="0 0 25 24" fill="none" xmlns="http://www.w3.org/2000/svg">
<path d="M19.3005 4.33333H17.6339V4C17.6339 3.73478 17.5285 3.48043 17.341 3.29289C17.1534 3.10536 16.8991 3 16.6339 3C16.3687 3 16.1143 3.10536 15.9268 3.29289C15.7392 3.48043 15.6339 3.73478 15.6339 4V4.33333H9.63387V4C9.63387 3.73478 9.52851 3.48043 9.34098 3.29289C9.15344 3.10536 8.89909 3 8.63387 3C8.36865 3 8.1143 3.10536 7.92676 3.29289C7.73923 3.48043 7.63387 3.73478 7.63387 4V4.33333H5.9672C5.52518 4.33333 5.10125 4.50893 4.78869 4.82149C4.47613 5.13405 4.30054 5.55797 4.30054 6V19.3333C4.30054 19.7754 4.47613 20.1993 4.78869 20.5118C5.10125 20.8244 5.52518 21 5.9672 21H19.3005C19.7426 21 20.1665 20.8244 20.479 20.5118C20.7916 20.1993 20.9672 19.7754 20.9672 19.3333V6C20.9672 5.55797 20.7916 5.13405 20.479 4.82149C20.1665 4.50893 19.7426 4.33333 19.3005 4.33333ZM7.63387 6.33333C7.63387 6.59855 7.73923 6.8529 7.92676 7.04044C8.1143 7.22798 8.36865 7.33333 8.63387 7.33333C8.89909 7.33333 9.15344 7.22798 9.34098 7.04044C9.52851 6.8529 9.63387 6.59855 9.63387 6.33333H15.6339C15.6339 6.59855 15.7392 6.8529 15.9268 7.04044C16.1143 7.22798 16.3687 7.33333 16.6339 7.33333C16.8991 7.33333 17.1534 7.22798 17.341 7.04044C17.5285 6.8529 17.6339 6.59855 17.6339 6.33333H18.9672V8.33333H6.30054V6.33333H7.63387ZM6.30054 19V10.3333H18.9672V19H6.30054Z" fill="#556170"/>
</svg>
