<svg width="24" height="24" viewBox="0 0 24 24" fill="none" xmlns="http://www.w3.org/2000/svg">
<path d="M19.6624 18.0465C19.8771 18.2611 19.9976 18.5521 19.9976 18.8556C19.9976 19.1591 19.8771 19.4502 19.6624 19.6648C19.4478 19.8794 19.1568 20 18.8533 20C18.5498 20 18.2587 19.8794 18.0441 19.6648L12 13.6188L5.954 19.6629C5.7394 19.8775 5.44833 19.9981 5.14482 19.9981C4.84132 19.9981 4.55025 19.8775 4.33565 19.6629C4.12104 19.4483 4.00047 19.1572 4.00047 18.8537C4.00047 18.5502 4.12104 18.2592 4.33565 18.0446L10.3816 12.0005L4.33755 5.95448C4.12294 5.73987 4.00238 5.4488 4.00238 5.1453C4.00238 4.8418 4.12294 4.55073 4.33755 4.33612C4.55216 4.12152 4.84323 4.00095 5.14673 4.00095C5.45023 4.00095 5.7413 4.12152 5.95591 4.33612L12 10.3821L18.046 4.33517C18.2606 4.12057 18.5517 4 18.8552 4C19.1587 4 19.4497 4.12057 19.6643 4.33517C19.879 4.54978 19.9995 4.84085 19.9995 5.14435C19.9995 5.44785 19.879 5.73892 19.6643 5.95353L13.6184 12.0005L19.6624 18.0465Z" fill="#121212"/>
</svg>
