<svg width="24" height="24" viewBox="0 0 24 24" fill="none" xmlns="http://www.w3.org/2000/svg">
<path d="M16.7639 12.2639L9.49173 19.5361C9.39002 19.6379 9.26039 19.7073 9.11925 19.7354C8.97811 19.7635 8.8318 19.7491 8.69885 19.694C8.56589 19.6389 8.45228 19.5456 8.37238 19.4259C8.29248 19.3062 8.24989 19.1655 8.25 19.0216V4.4772C8.24989 4.33328 8.29248 4.19257 8.37238 4.07288C8.45228 3.95318 8.56589 3.85988 8.69885 3.80479C8.8318 3.7497 8.97811 3.7353 9.11925 3.76341C9.26039 3.79152 9.39002 3.86087 9.49173 3.96269L16.7639 11.2349C16.8315 11.3024 16.8852 11.3826 16.9218 11.4709C16.9584 11.5592 16.9772 11.6538 16.9772 11.7494C16.9772 11.845 16.9584 11.9396 16.9218 12.0279C16.8852 12.1162 16.8315 12.1964 16.7639 12.2639Z" fill="#121212"/>
</svg>
