<svg width="24" height="24" viewBox="0 0 24 24" fill="none" xmlns="http://www.w3.org/2000/svg">
<path d="M10.5 19.3333C10.5 19.663 10.4022 19.9852 10.2191 20.2593C10.0359 20.5334 9.77564 20.747 9.4711 20.8731C9.16655 20.9993 8.83144 21.0323 8.50814 20.968C8.18484 20.9037 7.88787 20.7449 7.65478 20.5118C7.42169 20.2788 7.26296 19.9818 7.19865 19.6585C7.13434 19.3352 7.16735 19.0001 7.29349 18.6955C7.41964 18.391 7.63326 18.1307 7.90734 17.9475C8.18142 17.7644 8.50366 17.6667 8.83329 17.6667C9.27532 17.6667 9.69924 17.8423 10.0118 18.1548C10.3244 18.4674 10.5 18.8913 10.5 19.3333ZM17.5 17.6667C17.1703 17.6667 16.8481 17.7644 16.574 17.9475C16.2999 18.1307 16.0863 18.391 15.9602 18.6955C15.834 19.0001 15.801 19.3352 15.8653 19.6585C15.9296 19.9818 16.0884 20.2788 16.3214 20.5118C16.5545 20.7449 16.8515 20.9037 17.1748 20.968C17.4981 21.0323 17.8332 20.9993 18.1378 20.8731C18.4423 20.747 18.7026 20.5334 18.8857 20.2593C19.0689 19.9852 19.1666 19.663 19.1666 19.3333C19.1666 18.8913 18.991 18.4674 18.6785 18.1548C18.3659 17.8423 17.942 17.6667 17.5 17.6667ZM21.7891 7.6275L19.515 15.0192C19.3698 15.4972 19.0743 15.9156 18.6724 16.2124C18.2706 16.5092 17.7837 16.6685 17.2841 16.6667H9.07746C8.57071 16.665 8.07815 16.4992 7.67356 16.1941C7.26898 15.889 6.97416 15.4609 6.83329 14.9742L3.98413 5H3.16663C2.90141 5 2.64706 4.89464 2.45952 4.70711C2.27198 4.51957 2.16663 4.26522 2.16663 4C2.16663 3.73478 2.27198 3.48043 2.45952 3.29289C2.64706 3.10536 2.90141 3 3.16663 3H4.23496C4.59691 3.00112 4.94874 3.11957 5.23768 3.33758C5.52661 3.55559 5.73706 3.86142 5.83746 4.20917L6.44496 6.33333H20.8333C20.9898 6.33332 21.1441 6.37004 21.2838 6.44054C21.4236 6.51104 21.5448 6.61335 21.6378 6.73923C21.7307 6.86512 21.7929 7.01108 21.8192 7.16535C21.8454 7.31963 21.8352 7.47792 21.7891 7.6275ZM19.4791 8.33333H7.01579L8.75663 14.425C8.77656 14.4947 8.81866 14.556 8.87655 14.5996C8.93445 14.6432 9.00498 14.6667 9.07746 14.6667H17.2841C17.3555 14.6668 17.425 14.6441 17.4824 14.6018C17.5399 14.5595 17.5822 14.4998 17.6033 14.4317L19.4791 8.33333Z" fill="#121212"/>
</svg>
