<svg width="24" height="24" viewBox="0 0 24 24" fill="none" xmlns="http://www.w3.org/2000/svg">
<path d="M21 12.0014C21 12.2878 20.8862 12.5625 20.6837 12.765C20.4812 12.9675 20.2066 13.0812 19.9202 13.0812H12.0014C11.715 13.0812 11.4403 12.9675 11.2378 12.765C11.0353 12.5625 10.9216 12.2878 10.9216 12.0014C10.9216 11.715 11.0353 11.4404 11.2378 11.2378C11.4403 11.0353 11.715 10.9216 12.0014 10.9216H19.9202C20.2066 10.9216 20.4812 11.0353 20.6837 11.2378C20.8862 11.4404 21 11.715 21 12.0014ZM12.0014 7.32213H19.9202C20.2066 7.32213 20.4812 7.20836 20.6837 7.00585C20.8862 6.80334 21 6.52868 21 6.24229C21 5.9559 20.8862 5.68124 20.6837 5.47874C20.4812 5.27623 20.2066 5.16246 19.9202 5.16246H12.0014C11.715 5.16246 11.4403 5.27623 11.2378 5.47874C11.0353 5.68124 10.9216 5.9559 10.9216 6.24229C10.9216 6.52868 11.0353 6.80334 11.2378 7.00585C11.4403 7.20836 11.715 7.32213 12.0014 7.32213ZM19.9202 16.6807H12.0014C11.715 16.6807 11.4403 16.7945 11.2378 16.997C11.0353 17.1995 10.9216 17.4741 10.9216 17.7605C10.9216 18.0469 11.0353 18.3216 11.2378 18.5241C11.4403 18.7266 11.715 18.8404 12.0014 18.8404H19.9202C20.2066 18.8404 20.4812 18.7266 20.6837 18.5241C20.8862 18.3216 21 18.0469 21 17.7605C21 17.4741 20.8862 17.1995 20.6837 16.997C20.4812 16.7945 20.2066 16.6807 19.9202 16.6807ZM7.63796 4.03853L5.52238 6.15231L4.84659 5.47561C4.64373 5.27275 4.36859 5.15879 4.08171 5.15879C3.79482 5.15879 3.51968 5.27275 3.31682 5.47561C3.11397 5.67847 3 5.95361 3 6.24049C3 6.52738 3.11397 6.80252 3.31682 7.00538L4.7566 8.44515C4.85692 8.54582 4.97613 8.6257 5.10738 8.6802C5.23864 8.7347 5.37936 8.76276 5.52148 8.76276C5.66361 8.76276 5.80433 8.7347 5.93559 8.6802C6.06684 8.6257 6.18605 8.54582 6.28637 8.44515L9.16592 5.5656C9.36878 5.36274 9.48275 5.0876 9.48275 4.80072C9.48275 4.51383 9.36878 4.23869 9.16592 4.03583C8.96306 3.83297 8.68793 3.71901 8.40104 3.71901C8.11415 3.71901 7.83902 3.83297 7.63616 4.03583L7.63796 4.03853ZM7.63796 9.79765L5.52238 11.9114L4.84659 11.2347C4.64373 11.0319 4.36859 10.9179 4.08171 10.9179C3.79482 10.9179 3.51968 11.0319 3.31682 11.2347C3.11397 11.4376 3 11.7127 3 11.9996C3 12.2865 3.11397 12.5616 3.31682 12.7645L4.7566 14.2043C4.85692 14.3049 4.97613 14.3848 5.10738 14.4393C5.23864 14.4938 5.37936 14.5219 5.52148 14.5219C5.66361 14.5219 5.80433 14.4938 5.93559 14.4393C6.06684 14.3848 6.18605 14.3049 6.28637 14.2043L9.16592 11.3247C9.36878 11.1219 9.48275 10.8467 9.48275 10.5598C9.48275 10.2729 9.36878 9.99781 9.16592 9.79495C8.96306 9.59209 8.68793 9.47812 8.40104 9.47812C8.11415 9.47812 7.83902 9.59209 7.63616 9.79495L7.63796 9.79765ZM7.63796 15.5568L5.52238 17.6705L4.84659 16.9938C4.74614 16.8934 4.6269 16.8137 4.49566 16.7594C4.36442 16.705 4.22376 16.677 4.08171 16.677C3.93966 16.677 3.79899 16.705 3.66776 16.7594C3.53652 16.8137 3.41727 16.8934 3.31682 16.9938C3.21638 17.0943 3.1367 17.2135 3.08234 17.3448C3.02798 17.476 3 17.6167 3 17.7587C3 17.9008 3.02798 18.0414 3.08234 18.1727C3.1367 18.3039 3.21638 18.4232 3.31682 18.5236L4.7566 19.9634C4.85692 20.064 4.97613 20.1439 5.10738 20.1984C5.23864 20.2529 5.37936 20.281 5.52148 20.281C5.66361 20.281 5.80433 20.2529 5.93559 20.1984C6.06684 20.1439 6.18605 20.064 6.28637 19.9634L9.16592 17.0838C9.36878 16.881 9.48275 16.6058 9.48275 16.3189C9.48275 16.0321 9.36878 15.7569 9.16592 15.5541C8.96306 15.3512 8.68793 15.2372 8.40104 15.2372C8.11415 15.2372 7.83902 15.3512 7.63616 15.5541L7.63796 15.5568Z" fill="#121212"/>
</svg>
