<svg width="24" height="24" viewBox="0 0 24 24" fill="none" xmlns="http://www.w3.org/2000/svg">
<path d="M20.6937 7.1973L9.62003 18.2709C9.52358 18.3677 9.40898 18.4445 9.28279 18.4969C9.1566 18.5493 9.02131 18.5763 8.88467 18.5763C8.74804 18.5763 8.61275 18.5493 8.48656 18.4969C8.36037 18.4445 8.24576 18.3677 8.14931 18.2709L3.3046 13.4262C3.20803 13.3297 3.13142 13.215 3.07916 13.0888C3.0269 12.9627 3 12.8274 3 12.6909C3 12.5543 3.0269 12.4191 3.07916 12.2929C3.13142 12.1667 3.20803 12.0521 3.3046 11.9555C3.40116 11.8589 3.51581 11.7823 3.64198 11.7301C3.76815 11.6778 3.90339 11.6509 4.03995 11.6509C4.17652 11.6509 4.31175 11.6778 4.43793 11.7301C4.5641 11.7823 4.67875 11.8589 4.77531 11.9555L8.88554 16.0657L19.2247 5.72832C19.4197 5.53329 19.6842 5.42372 19.96 5.42372C20.2359 5.42372 20.5004 5.53329 20.6954 5.72832C20.8904 5.92335 21 6.18786 21 6.46368C21 6.73949 20.8904 7.00401 20.6954 7.19904L20.6937 7.1973Z" fill="#121212"/>
</svg>
