<svg width="24" height="24" viewBox="0 0 24 24" fill="none" xmlns="http://www.w3.org/2000/svg">
<path d="M16.7439 18.993C16.9644 19.2135 17.0883 19.5125 17.0883 19.8243C17.0883 20.1361 16.9644 20.4352 16.7439 20.6556C16.5234 20.8761 16.2244 21 15.9126 21C15.6008 21 15.3017 20.8761 15.0812 20.6556L7.25693 12.8313C7.14752 12.7223 7.0607 12.5927 7.00146 12.4501C6.94223 12.3074 6.91174 12.1545 6.91174 12C6.91174 11.8455 6.94223 11.6926 7.00146 11.5499C7.0607 11.4073 7.14752 11.2777 7.25693 11.1687L15.0812 3.34435C15.3017 3.12387 15.6008 3 15.9126 3C16.2244 3 16.5234 3.12387 16.7439 3.34435C16.9644 3.56483 17.0883 3.86387 17.0883 4.17568C17.0883 4.48749 16.9644 4.78653 16.7439 5.00702L9.75191 11.999L16.7439 18.993Z" fill="#121212"/>
</svg>
