<svg width="24" height="24" viewBox="0 0 24 24" fill="none" xmlns="http://www.w3.org/2000/svg">
<path d="M16.7426 12.8313L8.91826 20.6556C8.69778 20.8761 8.39874 21 8.08693 21C7.77512 21 7.47608 20.8761 7.2556 20.6556C7.03511 20.4352 6.91125 20.1361 6.91125 19.8243C6.91125 19.5125 7.03511 19.2135 7.2556 18.993L14.2496 12.001L7.25755 5.00702C7.14838 4.89784 7.06178 4.76824 7.0027 4.6256C6.94361 4.48296 6.9132 4.33008 6.9132 4.17568C6.9132 4.02129 6.94361 3.86841 7.0027 3.72577C7.06178 3.58313 7.14838 3.45352 7.25755 3.34435C7.36673 3.23518 7.49633 3.14858 7.63897 3.08949C7.78161 3.03041 7.93449 3 8.08889 3C8.24328 3 8.39616 3.03041 8.5388 3.08949C8.68144 3.14858 8.81105 3.23518 8.92022 3.34435L16.7445 11.1687C16.8538 11.2778 16.9405 11.4075 16.9996 11.5502C17.0586 11.693 17.0889 11.8459 17.0888 12.0004C17.0886 12.1549 17.0579 12.3078 16.9985 12.4504C16.9391 12.593 16.8521 12.7224 16.7426 12.8313Z" fill="#121212"/>
</svg>
