<svg width="24" height="24" viewBox="0 0 24 24" fill="none" xmlns="http://www.w3.org/2000/svg">
<path d="M20.6537 8.91958L12.8303 16.743C12.7212 16.8525 12.5917 16.9393 12.449 16.9985C12.3064 17.0577 12.1535 17.0882 11.999 17.0882C11.8446 17.0882 11.6916 17.0577 11.549 16.9985C11.4064 16.9393 11.2768 16.8525 11.1678 16.743L3.34431 8.91958C3.12385 8.69912 3 8.40011 3 8.08834C3 7.77656 3.12385 7.47755 3.34431 7.25709C3.56477 7.03663 3.86378 6.91278 4.17556 6.91278C4.48733 6.91278 4.78634 7.03663 5.0068 7.25709L12 14.2503L18.9932 7.25612C19.2137 7.03566 19.5127 6.9118 19.8244 6.9118C20.1362 6.9118 20.4352 7.03566 20.6557 7.25612C20.8761 7.47658 21 7.77558 21 8.08736C21 8.39914 20.8761 8.69814 20.6557 8.9186L20.6537 8.91958Z" fill="#121212"/>
</svg>
