<svg width="24" height="24" viewBox="0 0 24 24" fill="none" xmlns="http://www.w3.org/2000/svg">
<path d="M20.4934 7.37337L16.626 3.50676C16.3014 3.18228 15.8612 3 15.4023 3C14.9433 3 14.5032 3.18228 14.1786 3.50676L3.50646 14.178C3.34519 14.3383 3.21733 14.529 3.13028 14.7391C3.04323 14.9491 2.99872 15.1743 2.99933 15.4017V19.2692C2.99933 19.7282 3.18169 20.1685 3.50628 20.4931C3.83086 20.8176 4.2711 21 4.73014 21H19.2689C19.5443 21 19.8085 20.8906 20.0032 20.6958C20.198 20.5011 20.3074 20.2369 20.3074 19.9615C20.3074 19.6861 20.198 19.422 20.0032 19.2272C19.8085 19.0324 19.5443 18.923 19.2689 18.923H11.3937L20.4934 9.8216C20.6542 9.66087 20.7818 9.47003 20.8688 9.26C20.9558 9.04996 21.0006 8.82484 21.0006 8.59749C21.0006 8.37013 20.9558 8.14501 20.8688 7.93497C20.7818 7.72494 20.6542 7.5341 20.4934 7.37337ZM8.45137 18.923H5.0763V15.548L12.3457 8.27858L15.7207 11.6537L8.45137 18.923ZM17.1919 10.1825L13.8169 6.8074L15.404 5.22025L18.7791 8.59532L17.1919 10.1825Z" fill="#121212"/>
</svg>
