<svg width="30" height="30" viewBox="0 0 30 30" fill="none" xmlns="http://www.w3.org/2000/svg">
<path d="M24.578 22.5581C24.8462 22.8263 24.9969 23.1902 24.9969 23.5696C24.9969 23.9489 24.8462 24.3128 24.578 24.581C24.3097 24.8493 23.9459 25 23.5665 25C23.1871 25 22.8233 24.8493 22.555 24.581L14.9999 17.0235L7.4424 24.5787C7.17414 24.8469 6.8103 24.9976 6.43093 24.9976C6.05155 24.9976 5.68771 24.8469 5.41945 24.5787C5.1512 24.3104 5.00049 23.9466 5.00049 23.5672C5.00049 23.1878 5.1512 22.824 5.41945 22.5557L12.9769 15.0006L5.42183 7.4431C5.15357 7.17484 5.00287 6.81101 5.00287 6.43163C5.00287 6.05225 5.15357 5.68842 5.42183 5.42016C5.69009 5.1519 6.05393 5.00119 6.43331 5.00119C6.81268 5.00119 7.17652 5.1519 7.44478 5.42016L14.9999 12.9776L22.5574 5.41897C22.8256 5.15071 23.1895 5 23.5689 5C23.9482 5 24.3121 5.15071 24.5803 5.41897C24.8486 5.68723 24.9993 6.05106 24.9993 6.43044C24.9993 6.80982 24.8486 7.17365 24.5803 7.44191L17.0228 15.0006L24.578 22.5581Z" fill="#556170"/>
</svg>
