<svg width="31" height="30" viewBox="0 0 31 30" fill="none" xmlns="http://www.w3.org/2000/svg">
<rect x="0.166992" width="30" height="30" rx="15" fill="white"/>
<path d="M15.167 6C13.387 6 11.6469 6.52784 10.1669 7.51677C8.68682 8.50571 7.53327 9.91131 6.85208 11.5558C6.17089 13.2004 5.99266 15.01 6.33993 16.7558C6.6872 18.5016 7.54436 20.1053 8.80303 21.364C10.0617 22.6226 11.6654 23.4798 13.4112 23.8271C15.157 24.1743 16.9666 23.9961 18.6111 23.3149C20.2557 22.6337 21.6613 21.4802 22.6502 20.0001C23.6392 18.5201 24.167 16.78 24.167 15C24.1643 12.6139 23.2153 10.3262 21.528 8.63896C19.8408 6.95171 17.5531 6.00265 15.167 6ZM15.167 22C13.7825 22 12.4291 21.5895 11.278 20.8203C10.1269 20.0511 9.22965 18.9579 8.69984 17.6788C8.17003 16.3997 8.0314 14.9922 8.3015 13.6344C8.5716 12.2765 9.23828 11.0292 10.2172 10.0503C11.1962 9.07128 12.4435 8.4046 13.8014 8.1345C15.1592 7.86441 16.5667 8.00303 17.8458 8.53284C19.1249 9.06266 20.2181 9.95986 20.9873 11.111C21.7564 12.2622 22.167 13.6155 22.167 15C22.165 16.8559 21.4269 18.6352 20.1145 19.9476C18.8022 21.2599 17.0229 21.998 15.167 22ZM20.8337 15C20.8337 15.2652 20.7283 15.5196 20.5408 15.7071C20.3532 15.8946 20.0989 16 19.8337 16H15.167C14.9018 16 14.6474 15.8946 14.4599 15.7071C14.2724 15.5196 14.167 15.2652 14.167 15V10.3333C14.167 10.0681 14.2724 9.81376 14.4599 9.62623C14.6474 9.43869 14.9018 9.33333 15.167 9.33333C15.4322 9.33333 15.6866 9.43869 15.8741 9.62623C16.0616 9.81376 16.167 10.0681 16.167 10.3333V14H19.8337C20.0989 14 20.3532 14.1054 20.5408 14.2929C20.7283 14.4804 20.8337 14.7348 20.8337 15Z" fill="#556170"/>
</svg>
