<svg width="391" height="284" viewBox="0 0 391 284" fill="none" xmlns="http://www.w3.org/2000/svg">
<path d="M115.693 125.67C105.651 116.396 100.815 100.532 111.653 89.87C114.335 87.234 117.581 85.27 121.053 83.87C121.191 83.82 121.327 83.764 121.465 83.714" stroke="#707B88" stroke-width="1.45406" stroke-miterlimit="10"/>
<path d="M179.893 46.9898C189.985 47.8498 193.837 52.4198 198.667 58.4278C199.067 58.9258 199.453 59.4278 199.833 59.9298C204.153 65.6278 207.387 74.6038 216.121 73.4878C222.945 72.6138 228.787 68.3018 234.901 65.5098C244.979 60.9098 257.101 56.3658 267.935 61.2398C279.547 66.4618 285.269 80.6998 285.493 92.7098C285.711 104.784 280.587 120.222 268.837 125.67" stroke="#707B88" stroke-width="1.45406" stroke-miterlimit="10"/>
<path d="M186.823 70.5822C186.687 75.9622 184.876 81.1658 181.643 85.4682C181.635 85.475 181.629 85.483 181.625 85.4922C181.319 85.8222 181.007 86.1522 180.689 86.4702C178.15 89.0186 175.133 91.04 171.811 92.4182C168.488 93.7962 164.926 94.5038 161.329 94.5002H161.255C157.103 94.5002 152.953 94.5142 148.807 94.5142C145.535 94.5142 142.225 94.7142 138.985 94.2402C137.943 94.0902 136.959 93.7602 135.893 93.8082C131.829 93.9962 129.037 97.8422 127.111 100.952C127.085 100.993 127.051 101.027 127.011 101.052C126.996 101.017 126.99 100.978 126.991 100.94C127.247 96.2522 126.231 91.4042 123.893 87.3202C123.851 87.2402 123.807 87.1642 123.763 87.0902C122.461 84.8902 120.727 83.0002 119.611 80.6902C117.679 76.6744 116.813 72.2296 117.093 67.7824C117.374 63.3352 118.793 59.0348 121.215 55.2938C123.636 51.553 126.978 48.4972 130.92 46.4196C134.862 44.3422 139.272 43.3128 143.727 43.4302L161.547 43.9102C168.435 44.096 174.968 47.0102 179.708 52.012C184.448 57.0138 187.007 63.6936 186.823 70.5822Z" fill="#707B88"/>
<path d="M188.705 67.118C188.714 73.9 186.197 80.4424 181.643 85.468C181.635 85.4748 181.629 85.483 181.625 85.492C181.319 85.822 181.007 86.152 180.689 86.47C178.15 89.0184 175.133 91.0398 171.81 92.418C168.488 93.796 164.926 94.5036 161.329 94.5H161.255C157.103 94.5 152.953 94.514 148.807 94.514C145.535 94.514 142.225 94.714 138.985 94.24C137.943 94.09 136.959 93.76 135.893 93.808C131.829 93.996 129.037 97.842 127.111 100.952C127.085 100.992 127.051 101.027 127.011 101.052C126.965 101.081 126.912 101.096 126.858 101.097C126.804 101.098 126.751 101.085 126.704 101.058C126.657 101.031 126.619 100.992 126.592 100.945C126.566 100.897 126.553 100.844 126.555 100.79C126.693 95.84 125.483 90.768 122.903 86.528C122.859 86.448 122.809 86.366 122.759 86.292C121.325 84.016 119.449 82.072 118.209 79.672C116.055 75.498 115.012 70.8402 115.178 66.1466C115.345 61.4528 116.716 56.8808 119.16 52.87C121.604 48.8592 125.038 45.5444 129.133 43.2444C133.228 40.9442 137.846 39.736 142.543 39.736H161.329C164.924 39.7362 168.484 40.4446 171.806 41.821C175.128 43.1972 178.146 45.2142 180.688 47.7568C183.23 50.2996 185.246 53.318 186.622 56.64C187.997 59.962 188.705 63.5224 188.705 67.118Z" stroke="black" stroke-width="1.45406" stroke-miterlimit="10"/>
<path d="M172.245 52.546H156.693C154.066 52.546 151.937 54.6754 151.937 57.302V78.31C151.937 80.9368 154.066 83.0662 156.693 83.0662H172.245C174.871 83.0662 177.001 80.9368 177.001 78.31V57.302C177.001 54.6754 174.871 52.546 172.245 52.546Z" fill="#F5F5F5"/>
<path d="M164.609 61.0138C165.673 61.0138 166.537 60.1506 166.537 59.0858C166.537 58.021 165.673 57.1578 164.609 57.1578C163.544 57.1578 162.681 58.021 162.681 59.0858C162.681 60.1506 163.544 61.0138 164.609 61.0138Z" fill="#707B88"/>
<path d="M159.223 67.8064C159.223 66.3778 159.79 65.008 160.8 63.9978C161.81 62.9878 163.18 62.4204 164.609 62.4204C166.037 62.4204 167.407 62.9878 168.417 63.9978C169.427 65.008 169.995 66.3778 169.995 67.8064H159.223Z" fill="#707B88"/>
<path d="M169.227 72.404H159.709C158.356 72.404 157.259 73.5008 157.259 74.854V76.056C157.259 77.409 158.356 78.506 159.709 78.506H169.227C170.58 78.506 171.677 77.409 171.677 76.056V74.854C171.677 73.5008 170.58 72.404 169.227 72.404Z" fill="#707B88"/>
<path d="M144.121 62.2796H128.983" stroke="white" stroke-width="1.45406" stroke-linecap="round" stroke-linejoin="round"/>
<path d="M144.121 65.8204H128.983" stroke="white" stroke-width="1.45406" stroke-linecap="round" stroke-linejoin="round"/>
<path d="M144.121 68.9796H128.983" stroke="white" stroke-width="1.45406" stroke-linecap="round" stroke-linejoin="round"/>
<path d="M144.121 72.5204H128.983" stroke="white" stroke-width="1.45406" stroke-linecap="round" stroke-linejoin="round"/>
<path d="M144.121 59.1204H128.983" stroke="white" stroke-width="1.45406" stroke-linecap="round" stroke-linejoin="round"/>
<path d="M144.121 75.682H128.983" stroke="white" stroke-width="1.45406" stroke-linecap="round" stroke-linejoin="round"/>
<path d="M148.351 98.656C148.351 98.656 141.341 97.978 142.099 90.856C142.857 83.734 144.235 84.056 150.531 81.094C150.531 81.094 155.673 81.07 157.107 82.612C158.541 84.154 159.373 81.1 159.373 81.1C159.373 81.1 166.073 72.672 174.437 74.444C182.801 76.216 167.909 82.924 167.909 82.924C167.909 82.924 158.299 83.056 160.785 86.622C160.785 86.622 162.231 89.304 161.399 91.538C160.567 93.772 160.577 97.356 160.027 97.46C159.477 97.564 151.271 99.352 151.271 99.352L148.351 98.656Z" fill="white"/>
<path d="M213.851 125.672H194.379C191.154 125.677 187.96 125.046 184.979 123.816C181.998 122.585 179.289 120.779 177.007 118.5C177.005 118.976 176.955 119.449 176.857 119.914V106.942C170.457 99.4684 163.001 103.27 161.999 103.832C161.555 99.5864 161.163 96.2324 161.163 96.2324C161.163 96.2324 160.085 87.1244 168.525 83.7904C168.593 83.7604 168.661 83.7344 168.725 83.7104C172.675 82.2204 176.253 82.9564 179.239 84.4204C179.289 84.4504 179.339 84.4704 179.389 84.5004C182.543 86.0844 185.017 88.4664 186.545 89.8564C186.707 89.9984 186.857 90.1364 186.999 90.2564C188.571 91.6284 192.671 95.6804 197.277 98.9464L197.353 99.0024C200.737 101.388 204.389 103.352 207.507 103.52C207.513 103.532 215.409 111.474 213.851 125.672Z" fill="#2E2E2E"/>
<path d="M212.255 102.36C210.441 103.078 208.883 103.482 207.369 103.532C206.576 103.558 205.784 103.48 205.013 103.3C202.743 102.802 200.363 101.43 197.213 99.006L197.139 98.95C194.421 96.868 191.139 94.006 186.859 90.26C186.717 90.136 186.567 89.998 186.405 89.86C185.987 89.498 185.557 89.124 185.121 88.738C183.317 87.1222 181.347 85.7016 179.245 84.5C179.195 84.47 179.145 84.45 179.095 84.42C178.895 84.302 178.685 84.196 178.479 84.09C178.015 83.8512 177.536 83.6446 177.045 83.472C175.84 83.0412 174.572 82.8122 173.293 82.794L172.507 82.814C162.373 83.112 160.141 85.468 160.141 85.468C161.172 86.8744 161.804 88.5326 161.973 90.268C161.137 90.132 160.303 90.392 160.159 91.316C159.985 92.45 159.723 93.49 158.669 94.158C158.026 94.5336 157.266 94.6554 156.539 94.5C156.539 94.5 156.525 94.5 156.519 94.5C156.307 94.438 156.101 94.388 155.919 94.35C155.838 94.331 155.758 94.3062 155.681 94.276C153.557 93.502 152.317 93.802 152.721 96.076C153.195 98.75 149.705 99.1 147.405 98.688C143.347 96.862 142.237 89.738 145.453 85.35C145.535 85.238 145.627 85.12 145.721 85C145.815 84.88 145.921 84.77 146.015 84.658C146.255 84.3974 146.51 84.1516 146.781 83.922C146.875 83.842 146.969 83.76 147.067 83.686C147.165 83.612 147.305 83.504 147.423 83.418C147.537 83.3266 147.658 83.2432 147.785 83.168C148.873 82.4522 150.096 81.9652 151.378 81.7368C152.661 81.5086 153.976 81.5436 155.245 81.84C156.268 82.2036 157.228 82.723 158.093 83.38C158.093 83.38 158.173 83.256 158.335 83.032C158.711 83.2546 159.073 83.5004 159.419 83.768C159.419 83.768 165.509 74.48 174.341 74.586C175.052 74.5922 175.761 74.676 176.455 74.836C183.343 77.272 188.017 86.048 192.231 87.394C192.55 87.4958 192.874 87.5812 193.203 87.65C196.463 88.348 200.109 87.588 203.345 87.382C205.477 87.246 207.665 87.296 209.727 87.868C209.983 87.938 210.245 88.024 210.501 88.118H210.513C213.393 89.152 216.229 91.446 216.933 94.494C217.723 97.872 215.153 101.032 212.255 102.36Z" fill="#707B88"/>
<path d="M272.705 74.9002C272.617 75.2554 272.451 75.5864 272.217 75.868C271.984 76.1496 271.69 76.3746 271.357 76.5262L265.747 79.2002L253.251 83.7822L254.451 79.6122C254.823 79.066 255.354 78.6472 255.973 78.4122L266.827 74.2542L269.493 73.2142C270.022 73.0214 270.602 73.017 271.134 73.2022C271.667 73.3872 272.119 73.7504 272.415 74.2302C272.545 74.4374 272.643 74.6634 272.705 74.9002Z" fill="#707B88"/>
<path d="M266.833 73.064L269.503 72.014C270.096 71.7966 270.751 71.8174 271.329 72.0722C271.907 72.3268 272.364 72.7956 272.604 73.3802C272.844 73.9646 272.849 74.6194 272.617 75.207C272.384 75.7948 271.934 76.2696 271.359 76.532L265.749 79.204L257.409 119.604C256.94 121.345 255.91 122.883 254.479 123.98C253.048 125.077 251.296 125.672 249.493 125.672H194.229C191.004 125.677 187.81 125.046 184.829 123.815C181.848 122.585 179.139 120.778 176.857 118.5" stroke="black" stroke-width="1.45406" stroke-miterlimit="10"/>
<path d="M247.565 98.5524L247.391 99.0324C244.225 107.49 243.863 112.432 243.863 112.432" stroke="black" stroke-width="1.45406" stroke-miterlimit="10"/>
<path d="M163.475 120.136L161.013 95.0182C161.011 92.6336 161.707 90.3004 163.015 88.3066C164.323 86.313 166.186 84.7456 168.375 83.7982C169.974 83.0884 171.712 82.747 173.461 82.7988C175.21 82.8508 176.924 83.2948 178.479 84.0982C178.679 84.2042 178.889 84.3102 179.095 84.4282C179.145 84.4602 179.195 84.4782 179.245 84.5082C181.346 85.7086 183.314 87.1278 185.117 88.7422C185.553 89.1282 185.983 89.5022 186.401 89.8642C186.563 90.0062 186.713 90.1442 186.855 90.2642C191.131 94.0102 194.417 96.8642 197.135 98.9542L197.209 99.0102C201.459 102.276 204.303 103.628 207.363 103.528C209.295 103.466 211.309 102.818 213.813 101.708C223.163 97.5562 238.877 100.268 244.275 110.658" stroke="black" stroke-width="1.45406" stroke-miterlimit="10"/>
<path d="M169.671 125.66C169.803 125.66 169.927 125.672 170.051 125.672C171.854 125.672 173.584 124.956 174.859 123.68C176.134 122.405 176.851 120.675 176.851 118.872V99.5" stroke="black" stroke-width="1.45406" stroke-miterlimit="10"/>
<path d="M161.967 90.268C161.237 82.894 152.581 78.718 146.459 82.764C146.359 82.82 146.259 82.888 146.167 82.964L146.091 83.02C145.973 83.108 145.855 83.196 145.737 83.288C145.36 83.5848 145.008 83.9104 144.683 84.262C144.583 84.374 144.483 84.492 144.389 84.604C144.295 84.716 144.203 84.842 144.121 84.954" stroke="black" stroke-width="1.45406" stroke-miterlimit="10"/>
<path d="M147.419 98.6704C148.549 99.7974 149.881 100.702 151.345 101.338C157.217 103.706 160.067 99.2324 160.067 99.2324" stroke="black" stroke-width="1.45406" stroke-miterlimit="10"/>
<path d="M210.629 102.966C210.809 102.902 210.991 102.84 211.165 102.784L211.221 102.766C211.268 102.752 211.314 102.735 211.359 102.716C211.513 102.666 211.663 102.61 211.819 102.548L212.113 102.43C215.067 101.136 217.737 97.93 216.941 94.492C216.169 91.172 212.871 88.744 209.741 87.868C207.679 87.296 205.491 87.246 203.359 87.382C199.793 87.606 195.735 88.51 192.239 87.394C187.359 85.836 181.855 74.306 173.023 74.194C164.191 74.082 158.093 83.378 158.093 83.378" stroke="black" stroke-width="1.45406" stroke-miterlimit="10"/>
<path d="M160.139 85.472C160.139 85.472 161.967 82.996 172.773 82.796" stroke="black" stroke-width="1.45406" stroke-miterlimit="10"/>
<path d="M247.391 99.0322L252.751 83.9662L253.169 82.7882L254.509 79.0182C254.611 78.7314 254.756 78.4616 254.939 78.2182C255.312 77.6726 255.843 77.254 256.461 77.0182L266.833 73.0602" stroke="black" stroke-width="1.45406" stroke-miterlimit="10"/>
<path d="M242.293 74.1942L239.463 78.9002L232.077 88.8362L231.093 84.3162C231.108 83.6598 231.321 83.0232 231.705 82.4902L238.175 73.4642L238.873 72.5922C239.207 72.1374 239.689 71.8124 240.235 71.6724C240.782 71.5324 241.361 71.586 241.873 71.8242C242.146 71.95 242.392 72.128 242.597 72.3482C242.67 72.6608 242.681 72.9848 242.628 73.3014C242.576 73.6182 242.462 73.9216 242.293 74.1942Z" fill="#707B88"/>
<path d="M248.439 96.0996L239.467 78.8996L242.293 74.1916C242.541 73.7932 242.669 73.3316 242.663 72.862C242.656 72.3926 242.514 71.9348 242.255 71.5436C242.008 71.1692 241.662 70.8712 241.255 70.6836C240.744 70.4462 240.166 70.3922 239.62 70.5306C239.073 70.669 238.591 70.9914 238.255 71.4436L237.555 72.3236" stroke="black" stroke-width="1.45406" stroke-miterlimit="10"/>
<path d="M237.549 72.3242L231.079 81.3422C230.699 81.8794 230.49 82.5184 230.479 83.1762C230.463 83.4822 230.492 83.7886 230.565 84.0862L231.525 87.9682L231.825 89.1842L235.073 102.324" stroke="black" stroke-width="1.45406" stroke-miterlimit="10"/>
<path d="M146.457 82.7602C140.569 86.4122 141.243 96.1602 146.111 98.3042C147.971 99.1242 153.311 99.3242 152.711 96.0562C152.311 93.7902 153.549 93.4902 155.675 94.2562C159.353 95.5882 160.131 92.0282 160.131 91.7822" stroke="black" stroke-width="1.45406" stroke-miterlimit="10"/>
<path d="M158.975 100.418L161.381 101.134" stroke="black" stroke-width="1.45406" stroke-miterlimit="10"/>
<path d="M139.997 111.576L137.693 116.33C137.532 116.661 137.249 116.918 136.904 117.048C136.559 117.178 136.178 117.17 135.839 117.026C135.651 116.947 135.483 116.829 135.345 116.68C135.207 116.531 135.102 116.354 135.037 116.161C134.972 115.969 134.949 115.765 134.969 115.562C134.989 115.36 135.051 115.164 135.153 114.988L135.601 114.206C135.615 114.166 135.631 114.126 135.651 114.088L135.961 113.462L138.597 108.15C138.916 107.499 139.393 106.938 139.985 106.519C140.577 106.099 141.264 105.835 141.985 105.75H142.045" stroke="black" stroke-width="1.45406" stroke-miterlimit="10"/>
<path d="M145.093 111.204L141.693 112.188C141.501 112.243 141.3 112.261 141.101 112.239C140.903 112.217 140.71 112.156 140.535 112.059C140.36 111.963 140.206 111.833 140.081 111.677C139.957 111.521 139.864 111.342 139.809 111.15C139.753 110.958 139.736 110.757 139.758 110.558C139.78 110.36 139.841 110.167 139.937 109.992C140.033 109.817 140.163 109.663 140.319 109.538C140.476 109.414 140.655 109.321 140.847 109.266L145.671 107.866" stroke="black" stroke-width="1.45406" stroke-miterlimit="10"/>
<path d="M142.471 111.958C142.599 112.474 142.519 113.02 142.249 113.478C141.613 114.52 140.003 114.878 138.745 114.666" stroke="black" stroke-width="1.45406" stroke-miterlimit="10"/>
<path d="M135.957 113.462C134.641 112.564 134.373 110.906 134.779 109.448C136.431 103.414 143.325 104.848 147.899 105.908C150.625 106.556 153.299 107.405 155.899 108.45C158.051 109.31 160.157 110.464 162.475 110.782" stroke="black" stroke-width="1.45406" stroke-miterlimit="10"/>
<path d="M142.251 113.48C142.251 113.48 142.725 113.648 143.535 113.966C147.039 115.342 150.373 117.118 153.471 119.258C154.993 120.306 156.955 121.016 159.163 121.49" stroke="black" stroke-width="1.45406" stroke-miterlimit="10"/>
<path d="M163.037 116.968C162.318 116.846 161.579 116.967 160.937 117.313C160.294 117.659 159.786 118.209 159.493 118.876C158.227 121.476 159.995 124.554 162.855 124.994C165.237 125.381 167.642 125.608 170.055 125.672" stroke="black" stroke-width="1.45406" stroke-miterlimit="10"/>
<path d="M162.005 103.924L161.893 103.9C161.893 103.9 161.929 103.876 162.005 103.832C161.999 103.862 162.005 103.9 162.005 103.924Z" fill="#2E2E2E"/>
<path d="M153.177 122.612L124.846 117.228C124.13 117.092 123.439 117.562 123.303 118.278L123.182 118.915C123.046 119.631 123.516 120.322 124.232 120.458L152.563 125.842C153.28 125.978 153.971 125.508 154.107 124.791L154.228 124.155C154.364 123.439 153.893 122.748 153.177 122.612Z" stroke="black" stroke-width="1.45406" stroke-miterlimit="10"/>
<path d="M127.699 121.118V125.672" stroke="black" stroke-width="1.45406" stroke-miterlimit="10"/>
<path d="M106.599 125.672H276.563" stroke="black" stroke-width="1.45406" stroke-miterlimit="10"/>
<path d="M109.966 157.864V169.5H108.353L102.438 160.966H102.33V169.5H100.574V157.864H102.199L108.12 166.409H108.228V157.864H109.966ZM115.902 169.676C115.084 169.676 114.37 169.489 113.76 169.114C113.15 168.739 112.677 168.214 112.34 167.54C112.003 166.866 111.834 166.078 111.834 165.176C111.834 164.271 112.003 163.479 112.34 162.801C112.677 162.123 113.15 161.597 113.76 161.222C114.37 160.847 115.084 160.659 115.902 160.659C116.72 160.659 117.434 160.847 118.044 161.222C118.654 161.597 119.128 162.123 119.465 162.801C119.802 163.479 119.97 164.271 119.97 165.176C119.97 166.078 119.802 166.866 119.465 167.54C119.128 168.214 118.654 168.739 118.044 169.114C117.434 169.489 116.72 169.676 115.902 169.676ZM115.908 168.25C116.438 168.25 116.878 168.11 117.226 167.83C117.575 167.549 117.832 167.176 117.999 166.71C118.169 166.244 118.255 165.731 118.255 165.17C118.255 164.614 118.169 164.102 117.999 163.636C117.832 163.167 117.575 162.79 117.226 162.506C116.878 162.222 116.438 162.08 115.908 162.08C115.374 162.08 114.931 162.222 114.578 162.506C114.23 162.79 113.97 163.167 113.8 163.636C113.633 164.102 113.55 164.614 113.55 165.17C113.55 165.731 113.633 166.244 113.8 166.71C113.97 167.176 114.23 167.549 114.578 167.83C114.931 168.11 115.374 168.25 115.908 168.25ZM125.776 160.773V162.136H121.009V160.773H125.776ZM122.287 158.682H123.986V166.938C123.986 167.267 124.035 167.515 124.134 167.682C124.232 167.845 124.359 167.956 124.514 168.017C124.673 168.074 124.846 168.102 125.031 168.102C125.168 168.102 125.287 168.093 125.389 168.074C125.492 168.055 125.571 168.04 125.628 168.028L125.935 169.432C125.836 169.47 125.696 169.508 125.514 169.545C125.332 169.587 125.105 169.61 124.832 169.614C124.385 169.621 123.969 169.542 123.582 169.375C123.196 169.208 122.884 168.951 122.645 168.602C122.406 168.254 122.287 167.816 122.287 167.29V158.682ZM129.376 164.318V169.5H127.677V157.864H129.353V162.193H129.461C129.666 161.723 129.978 161.35 130.399 161.074C130.819 160.797 131.369 160.659 132.047 160.659C132.645 160.659 133.168 160.782 133.615 161.028C134.066 161.275 134.414 161.642 134.66 162.131C134.91 162.616 135.035 163.222 135.035 163.949V169.5H133.336V164.153C133.336 163.513 133.172 163.017 132.842 162.665C132.513 162.309 132.054 162.131 131.467 162.131C131.066 162.131 130.706 162.216 130.388 162.386C130.073 162.557 129.825 162.807 129.643 163.136C129.465 163.462 129.376 163.856 129.376 164.318ZM137.137 169.5V160.773H138.836V169.5H137.137ZM137.995 159.426C137.7 159.426 137.446 159.328 137.234 159.131C137.026 158.93 136.921 158.691 136.921 158.415C136.921 158.134 137.026 157.896 137.234 157.699C137.446 157.498 137.7 157.398 137.995 157.398C138.291 157.398 138.543 157.498 138.751 157.699C138.963 157.896 139.069 158.134 139.069 158.415C139.069 158.691 138.963 158.93 138.751 159.131C138.543 159.328 138.291 159.426 137.995 159.426ZM142.656 164.318V169.5H140.957V160.773H142.587V162.193H142.695C142.896 161.731 143.211 161.36 143.639 161.08C144.07 160.799 144.614 160.659 145.269 160.659C145.864 160.659 146.385 160.784 146.832 161.034C147.279 161.28 147.625 161.648 147.872 162.136C148.118 162.625 148.241 163.229 148.241 163.949V169.5H146.542V164.153C146.542 163.521 146.377 163.027 146.048 162.67C145.718 162.311 145.265 162.131 144.69 162.131C144.296 162.131 143.945 162.216 143.639 162.386C143.336 162.557 143.095 162.807 142.917 163.136C142.743 163.462 142.656 163.856 142.656 164.318ZM154.013 172.955C153.32 172.955 152.724 172.864 152.224 172.682C151.727 172.5 151.322 172.259 151.008 171.96C150.693 171.661 150.458 171.333 150.303 170.977L151.763 170.375C151.866 170.542 152.002 170.718 152.172 170.903C152.347 171.093 152.582 171.254 152.877 171.386C153.176 171.519 153.561 171.585 154.03 171.585C154.674 171.585 155.207 171.428 155.627 171.114C156.047 170.803 156.258 170.307 156.258 169.625V167.909H156.15C156.047 168.095 155.9 168.301 155.707 168.528C155.517 168.756 155.256 168.953 154.922 169.119C154.589 169.286 154.155 169.369 153.621 169.369C152.932 169.369 152.311 169.208 151.758 168.886C151.208 168.561 150.773 168.081 150.451 167.449C150.133 166.812 149.974 166.03 149.974 165.102C149.974 164.174 150.131 163.379 150.445 162.716C150.763 162.053 151.199 161.545 151.752 161.193C152.305 160.837 152.932 160.659 153.633 160.659C154.174 160.659 154.612 160.75 154.945 160.932C155.278 161.11 155.538 161.318 155.724 161.557C155.913 161.795 156.059 162.006 156.161 162.188H156.286V160.773H157.951V169.693C157.951 170.443 157.777 171.059 157.428 171.54C157.08 172.021 156.608 172.377 156.013 172.608C155.422 172.839 154.756 172.955 154.013 172.955ZM153.996 167.96C154.485 167.96 154.898 167.847 155.235 167.619C155.576 167.388 155.833 167.059 156.008 166.631C156.186 166.199 156.275 165.682 156.275 165.08C156.275 164.492 156.188 163.975 156.013 163.528C155.839 163.081 155.583 162.733 155.246 162.483C154.909 162.229 154.492 162.102 153.996 162.102C153.485 162.102 153.059 162.235 152.718 162.5C152.377 162.761 152.119 163.117 151.945 163.568C151.775 164.019 151.689 164.523 151.689 165.08C151.689 165.652 151.777 166.153 151.951 166.585C152.125 167.017 152.383 167.354 152.724 167.597C153.068 167.839 153.492 167.96 153.996 167.96ZM170.673 162.903L169.134 163.176C169.069 162.979 168.967 162.792 168.827 162.614C168.69 162.436 168.505 162.29 168.27 162.176C168.035 162.062 167.742 162.006 167.389 162.006C166.908 162.006 166.507 162.114 166.185 162.33C165.863 162.542 165.702 162.816 165.702 163.153C165.702 163.445 165.81 163.68 166.026 163.858C166.242 164.036 166.59 164.182 167.071 164.295L168.457 164.614C169.261 164.799 169.859 165.085 170.253 165.472C170.647 165.858 170.844 166.36 170.844 166.977C170.844 167.5 170.692 167.966 170.389 168.375C170.09 168.78 169.671 169.098 169.134 169.33C168.6 169.561 167.98 169.676 167.276 169.676C166.298 169.676 165.501 169.468 164.884 169.051C164.266 168.631 163.887 168.034 163.747 167.261L165.389 167.011C165.492 167.439 165.702 167.763 166.02 167.983C166.338 168.199 166.753 168.307 167.264 168.307C167.821 168.307 168.266 168.191 168.6 167.96C168.933 167.725 169.1 167.439 169.1 167.102C169.1 166.83 168.997 166.6 168.793 166.415C168.592 166.229 168.283 166.089 167.867 165.994L166.389 165.67C165.575 165.485 164.973 165.189 164.582 164.784C164.196 164.379 164.003 163.866 164.003 163.244C164.003 162.729 164.147 162.278 164.435 161.892C164.723 161.506 165.12 161.205 165.628 160.989C166.136 160.769 166.717 160.659 167.372 160.659C168.315 160.659 169.058 160.864 169.6 161.273C170.141 161.678 170.499 162.222 170.673 162.903ZM176.223 169.676C175.378 169.676 174.651 169.485 174.041 169.102C173.435 168.716 172.969 168.184 172.643 167.506C172.318 166.828 172.155 166.051 172.155 165.176C172.155 164.29 172.321 163.508 172.655 162.83C172.988 162.148 173.458 161.616 174.064 161.233C174.67 160.85 175.384 160.659 176.206 160.659C176.869 160.659 177.46 160.782 177.979 161.028C178.497 161.271 178.916 161.612 179.234 162.051C179.556 162.491 179.747 163.004 179.808 163.591H178.155C178.064 163.182 177.855 162.83 177.53 162.534C177.208 162.239 176.776 162.091 176.234 162.091C175.761 162.091 175.346 162.216 174.99 162.466C174.638 162.712 174.363 163.064 174.166 163.523C173.969 163.977 173.871 164.515 173.871 165.136C173.871 165.773 173.967 166.322 174.16 166.784C174.354 167.246 174.626 167.604 174.979 167.858C175.335 168.112 175.753 168.239 176.234 168.239C176.556 168.239 176.848 168.18 177.109 168.062C177.374 167.941 177.596 167.769 177.774 167.545C177.956 167.322 178.083 167.053 178.155 166.739H179.808C179.747 167.303 179.564 167.807 179.257 168.25C178.95 168.693 178.539 169.042 178.024 169.295C177.513 169.549 176.912 169.676 176.223 169.676ZM183.159 164.318V169.5H181.46V157.864H183.136V162.193H183.244C183.448 161.723 183.761 161.35 184.181 161.074C184.602 160.797 185.151 160.659 185.829 160.659C186.428 160.659 186.95 160.782 187.397 161.028C187.848 161.275 188.197 161.642 188.443 162.131C188.693 162.616 188.818 163.222 188.818 163.949V169.5H187.119V164.153C187.119 163.513 186.954 163.017 186.625 162.665C186.295 162.309 185.837 162.131 185.25 162.131C184.848 162.131 184.488 162.216 184.17 162.386C183.856 162.557 183.608 162.807 183.426 163.136C183.248 163.462 183.159 163.856 183.159 164.318ZM194.681 169.676C193.821 169.676 193.081 169.492 192.46 169.125C191.842 168.754 191.365 168.233 191.028 167.562C190.694 166.888 190.528 166.098 190.528 165.193C190.528 164.299 190.694 163.511 191.028 162.83C191.365 162.148 191.835 161.616 192.437 161.233C193.043 160.85 193.751 160.659 194.562 160.659C195.054 160.659 195.532 160.741 195.994 160.903C196.456 161.066 196.871 161.322 197.238 161.67C197.605 162.019 197.895 162.472 198.107 163.028C198.319 163.581 198.426 164.254 198.426 165.045V165.648H191.488V164.375H196.761C196.761 163.928 196.67 163.532 196.488 163.188C196.306 162.839 196.051 162.564 195.721 162.364C195.395 162.163 195.013 162.062 194.573 162.062C194.096 162.062 193.679 162.18 193.323 162.415C192.971 162.646 192.698 162.949 192.505 163.324C192.316 163.695 192.221 164.098 192.221 164.534V165.528C192.221 166.112 192.323 166.608 192.528 167.017C192.736 167.426 193.026 167.739 193.397 167.955C193.768 168.167 194.202 168.273 194.698 168.273C195.02 168.273 195.314 168.227 195.579 168.136C195.844 168.042 196.073 167.902 196.266 167.716C196.46 167.53 196.607 167.301 196.71 167.028L198.318 167.318C198.189 167.792 197.958 168.206 197.624 168.562C197.295 168.915 196.88 169.189 196.38 169.386C195.884 169.58 195.318 169.676 194.681 169.676ZM203.413 169.67C202.708 169.67 202.079 169.491 201.526 169.131C200.977 168.767 200.545 168.25 200.231 167.58C199.92 166.905 199.765 166.097 199.765 165.153C199.765 164.21 199.922 163.403 200.236 162.733C200.555 162.062 200.99 161.549 201.543 161.193C202.096 160.837 202.723 160.659 203.424 160.659C203.966 160.659 204.401 160.75 204.731 160.932C205.064 161.11 205.322 161.318 205.503 161.557C205.689 161.795 205.833 162.006 205.935 162.188H206.038V157.864H207.736V169.5H206.077V168.142H205.935C205.833 168.328 205.685 168.54 205.492 168.778C205.303 169.017 205.041 169.225 204.708 169.403C204.375 169.581 203.943 169.67 203.413 169.67ZM203.788 168.222C204.276 168.222 204.689 168.093 205.026 167.835C205.367 167.574 205.625 167.212 205.799 166.75C205.977 166.288 206.066 165.75 206.066 165.136C206.066 164.53 205.979 164 205.805 163.545C205.63 163.091 205.375 162.737 205.038 162.483C204.7 162.229 204.284 162.102 203.788 162.102C203.276 162.102 202.85 162.235 202.509 162.5C202.168 162.765 201.911 163.127 201.736 163.585C201.566 164.044 201.481 164.561 201.481 165.136C201.481 165.72 201.568 166.244 201.742 166.71C201.916 167.176 202.174 167.545 202.515 167.818C202.859 168.087 203.284 168.222 203.788 168.222ZM215.525 165.881V160.773H217.229V169.5H215.559V167.989H215.468C215.267 168.455 214.945 168.843 214.502 169.153C214.062 169.46 213.515 169.614 212.86 169.614C212.299 169.614 211.803 169.491 211.371 169.244C210.943 168.994 210.606 168.625 210.36 168.136C210.117 167.648 209.996 167.044 209.996 166.324V160.773H211.695V166.119C211.695 166.714 211.86 167.187 212.189 167.54C212.519 167.892 212.947 168.068 213.473 168.068C213.792 168.068 214.108 167.989 214.422 167.83C214.74 167.67 215.004 167.43 215.212 167.108C215.424 166.786 215.528 166.377 215.525 165.881ZM221.046 157.864V169.5H219.347V157.864H221.046ZM226.927 169.676C226.068 169.676 225.327 169.492 224.706 169.125C224.088 168.754 223.611 168.233 223.274 167.562C222.941 166.888 222.774 166.098 222.774 165.193C222.774 164.299 222.941 163.511 223.274 162.83C223.611 162.148 224.081 161.616 224.683 161.233C225.289 160.85 225.998 160.659 226.808 160.659C227.301 160.659 227.778 160.741 228.24 160.903C228.702 161.066 229.117 161.322 229.484 161.67C229.852 162.019 230.141 162.472 230.354 163.028C230.566 163.581 230.672 164.254 230.672 165.045V165.648H223.734V164.375H229.007C229.007 163.928 228.916 163.532 228.734 163.188C228.552 162.839 228.297 162.564 227.967 162.364C227.641 162.163 227.259 162.062 226.82 162.062C226.342 162.062 225.926 162.18 225.57 162.415C225.217 162.646 224.945 162.949 224.751 163.324C224.562 163.695 224.467 164.098 224.467 164.534V165.528C224.467 166.112 224.57 166.608 224.774 167.017C224.982 167.426 225.272 167.739 225.643 167.955C226.015 168.167 226.448 168.273 226.945 168.273C227.266 168.273 227.56 168.227 227.825 168.136C228.09 168.042 228.32 167.902 228.513 167.716C228.706 167.53 228.854 167.301 228.956 167.028L230.564 167.318C230.435 167.792 230.204 168.206 229.871 168.562C229.541 168.915 229.126 169.189 228.626 169.386C228.13 169.58 227.564 169.676 226.927 169.676ZM235.659 169.67C234.954 169.67 234.325 169.491 233.772 169.131C233.223 168.767 232.791 168.25 232.477 167.58C232.166 166.905 232.011 166.097 232.011 165.153C232.011 164.21 232.168 163.403 232.483 162.733C232.801 162.062 233.236 161.549 233.789 161.193C234.342 160.837 234.969 160.659 235.67 160.659C236.212 160.659 236.647 160.75 236.977 160.932C237.31 161.11 237.568 161.318 237.75 161.557C237.935 161.795 238.079 162.006 238.182 162.188H238.284V157.864H239.983V169.5H238.324V168.142H238.182C238.079 168.328 237.932 168.54 237.738 168.778C237.549 169.017 237.288 169.225 236.954 169.403C236.621 169.581 236.189 169.67 235.659 169.67ZM236.034 168.222C236.522 168.222 236.935 168.093 237.272 167.835C237.613 167.574 237.871 167.212 238.045 166.75C238.223 166.288 238.312 165.75 238.312 165.136C238.312 164.53 238.225 164 238.051 163.545C237.877 163.091 237.621 162.737 237.284 162.483C236.947 162.229 236.53 162.102 236.034 162.102C235.522 162.102 235.096 162.235 234.755 162.5C234.414 162.765 234.157 163.127 233.983 163.585C233.812 164.044 233.727 164.561 233.727 165.136C233.727 165.72 233.814 166.244 233.988 166.71C234.163 167.176 234.42 167.545 234.761 167.818C235.106 168.087 235.53 168.222 236.034 168.222ZM250.386 160.773V162.136H245.619V160.773H250.386ZM246.897 158.682H248.596V166.938C248.596 167.267 248.645 167.515 248.744 167.682C248.842 167.845 248.969 167.956 249.124 168.017C249.283 168.074 249.456 168.102 249.641 168.102C249.778 168.102 249.897 168.093 249.999 168.074C250.101 168.055 250.181 168.04 250.238 168.028L250.545 169.432C250.446 169.47 250.306 169.508 250.124 169.545C249.942 169.587 249.715 169.61 249.442 169.614C248.995 169.621 248.579 169.542 248.192 169.375C247.806 169.208 247.494 168.951 247.255 168.602C247.016 168.254 246.897 167.816 246.897 167.29V158.682ZM255.682 169.676C254.864 169.676 254.15 169.489 253.54 169.114C252.93 168.739 252.457 168.214 252.12 167.54C251.783 166.866 251.614 166.078 251.614 165.176C251.614 164.271 251.783 163.479 252.12 162.801C252.457 162.123 252.93 161.597 253.54 161.222C254.15 160.847 254.864 160.659 255.682 160.659C256.5 160.659 257.214 160.847 257.824 161.222C258.434 161.597 258.908 162.123 259.245 162.801C259.582 163.479 259.75 164.271 259.75 165.176C259.75 166.078 259.582 166.866 259.245 167.54C258.908 168.214 258.434 168.739 257.824 169.114C257.214 169.489 256.5 169.676 255.682 169.676ZM255.688 168.25C256.218 168.25 256.658 168.11 257.006 167.83C257.355 167.549 257.612 167.176 257.779 166.71C257.949 166.244 258.035 165.731 258.035 165.17C258.035 164.614 257.949 164.102 257.779 163.636C257.612 163.167 257.355 162.79 257.006 162.506C256.658 162.222 256.218 162.08 255.688 162.08C255.154 162.08 254.711 162.222 254.358 162.506C254.01 162.79 253.75 163.167 253.58 163.636C253.413 164.102 253.33 164.614 253.33 165.17C253.33 165.731 253.413 166.244 253.58 166.71C253.75 167.176 254.01 167.549 254.358 167.83C254.711 168.11 255.154 168.25 255.688 168.25ZM264.749 169.67C264.044 169.67 263.415 169.491 262.862 169.131C262.313 168.767 261.881 168.25 261.567 167.58C261.256 166.905 261.101 166.097 261.101 165.153C261.101 164.21 261.258 163.403 261.573 162.733C261.891 162.062 262.326 161.549 262.879 161.193C263.432 160.837 264.059 160.659 264.76 160.659C265.302 160.659 265.737 160.75 266.067 160.932C266.4 161.11 266.658 161.318 266.84 161.557C267.025 161.795 267.169 162.006 267.272 162.188H267.374V157.864H269.073V169.5H267.414V168.142H267.272C267.169 168.328 267.022 168.54 266.828 168.778C266.639 169.017 266.378 169.225 266.044 169.403C265.711 169.581 265.279 169.67 264.749 169.67ZM265.124 168.222C265.612 168.222 266.025 168.093 266.362 167.835C266.703 167.574 266.961 167.212 267.135 166.75C267.313 166.288 267.402 165.75 267.402 165.136C267.402 164.53 267.315 164 267.141 163.545C266.967 163.091 266.711 162.737 266.374 162.483C266.037 162.229 265.62 162.102 265.124 162.102C264.612 162.102 264.186 162.235 263.845 162.5C263.504 162.765 263.247 163.127 263.073 163.585C262.902 164.044 262.817 164.561 262.817 165.136C262.817 165.72 262.904 166.244 263.078 166.71C263.253 167.176 263.51 167.545 263.851 167.818C264.196 168.087 264.62 168.222 265.124 168.222ZM273.872 169.693C273.319 169.693 272.819 169.591 272.372 169.386C271.925 169.178 271.571 168.877 271.31 168.483C271.052 168.089 270.923 167.606 270.923 167.034C270.923 166.542 271.018 166.136 271.207 165.818C271.397 165.5 271.652 165.248 271.974 165.062C272.296 164.877 272.656 164.737 273.054 164.642C273.452 164.547 273.857 164.475 274.27 164.426C274.793 164.366 275.217 164.316 275.543 164.278C275.868 164.237 276.105 164.17 276.253 164.08C276.401 163.989 276.474 163.841 276.474 163.636V163.597C276.474 163.1 276.334 162.716 276.054 162.443C275.777 162.17 275.365 162.034 274.815 162.034C274.243 162.034 273.793 162.161 273.463 162.415C273.137 162.665 272.912 162.943 272.787 163.25L271.19 162.886C271.38 162.356 271.656 161.928 272.02 161.602C272.387 161.273 272.81 161.034 273.287 160.886C273.764 160.735 274.266 160.659 274.793 160.659C275.141 160.659 275.51 160.701 275.901 160.784C276.294 160.864 276.662 161.011 277.003 161.227C277.348 161.443 277.63 161.752 277.849 162.153C278.069 162.551 278.179 163.068 278.179 163.705V169.5H276.52V168.307H276.452C276.342 168.527 276.177 168.742 275.957 168.955C275.738 169.167 275.455 169.343 275.111 169.483C274.766 169.623 274.353 169.693 273.872 169.693ZM274.241 168.33C274.711 168.33 275.113 168.237 275.446 168.051C275.783 167.866 276.039 167.623 276.213 167.324C276.391 167.021 276.48 166.697 276.48 166.352V165.227C276.419 165.288 276.302 165.345 276.128 165.398C275.957 165.447 275.762 165.491 275.543 165.528C275.323 165.562 275.109 165.595 274.901 165.625C274.692 165.652 274.518 165.674 274.378 165.693C274.048 165.735 273.747 165.805 273.474 165.903C273.205 166.002 272.99 166.144 272.827 166.33C272.668 166.511 272.588 166.754 272.588 167.057C272.588 167.477 272.743 167.795 273.054 168.011C273.365 168.223 273.76 168.33 274.241 168.33ZM281.038 172.773C280.784 172.773 280.553 172.752 280.345 172.71C280.137 172.672 279.981 172.631 279.879 172.585L280.288 171.193C280.599 171.277 280.875 171.313 281.118 171.301C281.36 171.29 281.574 171.199 281.76 171.028C281.949 170.858 282.116 170.58 282.26 170.193L282.47 169.614L279.277 160.773H281.095L283.305 167.545H283.396L285.606 160.773H287.43L283.834 170.665C283.667 171.119 283.455 171.504 283.197 171.818C282.94 172.136 282.633 172.375 282.277 172.534C281.921 172.693 281.508 172.773 281.038 172.773ZM289.434 169.608C289.124 169.608 288.857 169.498 288.633 169.278C288.41 169.055 288.298 168.786 288.298 168.472C288.298 168.161 288.41 167.896 288.633 167.676C288.857 167.453 289.124 167.341 289.434 167.341C289.745 167.341 290.012 167.453 290.235 167.676C290.459 167.896 290.571 168.161 290.571 168.472C290.571 168.68 290.518 168.871 290.411 169.045C290.309 169.216 290.173 169.352 290.002 169.455C289.832 169.557 289.643 169.608 289.434 169.608ZM116.165 193.5H114.301L118.489 181.864H120.517L124.705 193.5H122.841L119.551 183.977H119.46L116.165 193.5ZM116.477 188.943H122.523V190.42H116.477V188.943ZM129.21 193.67C128.505 193.67 127.877 193.491 127.324 193.131C126.774 192.767 126.343 192.25 126.028 191.58C125.718 190.905 125.562 190.097 125.562 189.153C125.562 188.21 125.719 187.403 126.034 186.733C126.352 186.062 126.788 185.549 127.341 185.193C127.894 184.837 128.521 184.659 129.221 184.659C129.763 184.659 130.199 184.75 130.528 184.932C130.862 185.11 131.119 185.318 131.301 185.557C131.487 185.795 131.63 186.006 131.733 186.188H131.835V181.864H133.534V193.5H131.875V192.142H131.733C131.63 192.328 131.483 192.54 131.29 192.778C131.1 193.017 130.839 193.225 130.505 193.403C130.172 193.581 129.74 193.67 129.21 193.67ZM129.585 192.222C130.074 192.222 130.487 192.093 130.824 191.835C131.165 191.574 131.422 191.212 131.596 190.75C131.774 190.288 131.863 189.75 131.863 189.136C131.863 188.53 131.776 188 131.602 187.545C131.428 187.091 131.172 186.737 130.835 186.483C130.498 186.229 130.081 186.102 129.585 186.102C129.074 186.102 128.648 186.235 128.307 186.5C127.966 186.765 127.708 187.127 127.534 187.585C127.363 188.044 127.278 188.561 127.278 189.136C127.278 189.72 127.365 190.244 127.54 190.71C127.714 191.176 127.971 191.545 128.312 191.818C128.657 192.087 129.081 192.222 129.585 192.222ZM139.061 193.67C138.356 193.67 137.727 193.491 137.174 193.131C136.625 192.767 136.193 192.25 135.879 191.58C135.568 190.905 135.413 190.097 135.413 189.153C135.413 188.21 135.57 187.403 135.885 186.733C136.203 186.062 136.638 185.549 137.191 185.193C137.744 184.837 138.371 184.659 139.072 184.659C139.614 184.659 140.049 184.75 140.379 184.932C140.712 185.11 140.97 185.318 141.152 185.557C141.337 185.795 141.481 186.006 141.583 186.188H141.686V181.864H143.385V193.5H141.725V192.142H141.583C141.481 192.328 141.333 192.54 141.14 192.778C140.951 193.017 140.689 193.225 140.356 193.403C140.023 193.581 139.591 193.67 139.061 193.67ZM139.436 192.222C139.924 192.222 140.337 192.093 140.674 191.835C141.015 191.574 141.273 191.212 141.447 190.75C141.625 190.288 141.714 189.75 141.714 189.136C141.714 188.53 141.627 188 141.453 187.545C141.278 187.091 141.023 186.737 140.686 186.483C140.349 186.229 139.932 186.102 139.436 186.102C138.924 186.102 138.498 186.235 138.157 186.5C137.816 186.765 137.559 187.127 137.385 187.585C137.214 188.044 137.129 188.561 137.129 189.136C137.129 189.72 137.216 190.244 137.39 190.71C137.564 191.176 137.822 191.545 138.163 191.818C138.508 192.087 138.932 192.222 139.436 192.222ZM152.253 193.693C151.7 193.693 151.2 193.591 150.753 193.386C150.306 193.178 149.952 192.877 149.691 192.483C149.433 192.089 149.305 191.606 149.305 191.034C149.305 190.542 149.399 190.136 149.589 189.818C149.778 189.5 150.034 189.248 150.356 189.062C150.678 188.877 151.037 188.737 151.435 188.642C151.833 188.547 152.238 188.475 152.651 188.426C153.174 188.366 153.598 188.316 153.924 188.278C154.25 188.237 154.486 188.17 154.634 188.08C154.782 187.989 154.856 187.841 154.856 187.636V187.597C154.856 187.1 154.715 186.716 154.435 186.443C154.159 186.17 153.746 186.034 153.197 186.034C152.625 186.034 152.174 186.161 151.844 186.415C151.519 186.665 151.293 186.943 151.168 187.25L149.572 186.886C149.761 186.356 150.037 185.928 150.401 185.602C150.769 185.273 151.191 185.034 151.668 184.886C152.145 184.735 152.647 184.659 153.174 184.659C153.522 184.659 153.892 184.701 154.282 184.784C154.676 184.864 155.043 185.011 155.384 185.227C155.729 185.443 156.011 185.752 156.231 186.153C156.45 186.551 156.56 187.068 156.56 187.705V193.5H154.901V192.307H154.833C154.723 192.527 154.558 192.742 154.339 192.955C154.119 193.167 153.837 193.343 153.492 193.483C153.147 193.623 152.734 193.693 152.253 193.693ZM152.623 192.33C153.092 192.33 153.494 192.237 153.827 192.051C154.164 191.866 154.42 191.623 154.594 191.324C154.772 191.021 154.861 190.697 154.861 190.352V189.227C154.801 189.288 154.683 189.345 154.509 189.398C154.339 189.447 154.144 189.491 153.924 189.528C153.704 189.562 153.49 189.595 153.282 189.625C153.073 189.652 152.899 189.674 152.759 189.693C152.43 189.735 152.128 189.805 151.856 189.903C151.587 190.002 151.371 190.144 151.208 190.33C151.049 190.511 150.969 190.754 150.969 191.057C150.969 191.477 151.125 191.795 151.435 192.011C151.746 192.223 152.142 192.33 152.623 192.33ZM164.426 188.318V193.5H162.727V184.773H164.358V186.193H164.466C164.667 185.731 164.981 185.36 165.409 185.08C165.841 184.799 166.385 184.659 167.04 184.659C167.635 184.659 168.155 184.784 168.602 185.034C169.049 185.28 169.396 185.648 169.642 186.136C169.888 186.625 170.011 187.229 170.011 187.949V193.5H168.313V188.153C168.313 187.521 168.148 187.027 167.818 186.67C167.489 186.311 167.036 186.131 166.46 186.131C166.066 186.131 165.716 186.216 165.409 186.386C165.106 186.557 164.866 186.807 164.688 187.136C164.513 187.462 164.426 187.856 164.426 188.318ZM175.886 193.676C175.026 193.676 174.286 193.492 173.665 193.125C173.047 192.754 172.57 192.233 172.233 191.562C171.899 190.888 171.733 190.098 171.733 189.193C171.733 188.299 171.899 187.511 172.233 186.83C172.57 186.148 173.04 185.616 173.642 185.233C174.248 184.85 174.956 184.659 175.767 184.659C176.259 184.659 176.737 184.741 177.199 184.903C177.661 185.066 178.076 185.322 178.443 185.67C178.81 186.019 179.1 186.472 179.312 187.028C179.524 187.581 179.631 188.254 179.631 189.045V189.648H172.693V188.375H177.966C177.966 187.928 177.875 187.532 177.693 187.188C177.511 186.839 177.256 186.564 176.926 186.364C176.6 186.163 176.218 186.062 175.778 186.062C175.301 186.062 174.884 186.18 174.528 186.415C174.176 186.646 173.903 186.949 173.71 187.324C173.521 187.695 173.426 188.098 173.426 188.534V189.528C173.426 190.112 173.528 190.608 173.733 191.017C173.941 191.426 174.231 191.739 174.602 191.955C174.973 192.167 175.407 192.273 175.903 192.273C176.225 192.273 176.519 192.227 176.784 192.136C177.049 192.042 177.278 191.902 177.471 191.716C177.665 191.53 177.812 191.301 177.915 191.028L179.523 191.318C179.394 191.792 179.163 192.206 178.829 192.562C178.5 192.915 178.085 193.189 177.585 193.386C177.089 193.58 176.523 193.676 175.886 193.676ZM183.227 193.5L180.659 184.773H182.414L184.125 191.182H184.21L185.926 184.773H187.681L189.386 191.153H189.471L191.17 184.773H192.926L190.363 193.5H188.63L186.858 187.199H186.727L184.954 193.5H183.227ZM202.204 193.676C201.344 193.676 200.603 193.492 199.982 193.125C199.365 192.754 198.887 192.233 198.55 191.562C198.217 190.888 198.05 190.098 198.05 189.193C198.05 188.299 198.217 187.511 198.55 186.83C198.887 186.148 199.357 185.616 199.959 185.233C200.565 184.85 201.274 184.659 202.084 184.659C202.577 184.659 203.054 184.741 203.516 184.903C203.978 185.066 204.393 185.322 204.761 185.67C205.128 186.019 205.418 186.472 205.63 187.028C205.842 187.581 205.948 188.254 205.948 189.045V189.648H199.011V188.375H204.283C204.283 187.928 204.192 187.532 204.011 187.188C203.829 186.839 203.573 186.564 203.243 186.364C202.918 186.163 202.535 186.062 202.096 186.062C201.618 186.062 201.202 186.18 200.846 186.415C200.493 186.646 200.221 186.949 200.028 187.324C199.838 187.695 199.743 188.098 199.743 188.534V189.528C199.743 190.112 199.846 190.608 200.05 191.017C200.259 191.426 200.548 191.739 200.92 191.955C201.291 192.167 201.725 192.273 202.221 192.273C202.543 192.273 202.836 192.227 203.101 192.136C203.367 192.042 203.596 191.902 203.789 191.716C203.982 191.53 204.13 191.301 204.232 191.028L205.84 191.318C205.711 191.792 205.48 192.206 205.147 192.562C204.817 192.915 204.403 193.189 203.903 193.386C203.406 193.58 202.84 193.676 202.204 193.676ZM214.884 184.773L211.719 193.5H209.901L206.73 184.773H208.554L210.765 191.489H210.855L213.06 184.773H214.884ZM219.78 193.676C218.92 193.676 218.18 193.492 217.558 193.125C216.941 192.754 216.464 192.233 216.127 191.562C215.793 190.888 215.627 190.098 215.627 189.193C215.627 188.299 215.793 187.511 216.127 186.83C216.464 186.148 216.933 185.616 217.536 185.233C218.142 184.85 218.85 184.659 219.661 184.659C220.153 184.659 220.63 184.741 221.092 184.903C221.555 185.066 221.969 185.322 222.337 185.67C222.704 186.019 222.994 186.472 223.206 187.028C223.418 187.581 223.524 188.254 223.524 189.045V189.648H216.587V188.375H221.86C221.86 187.928 221.769 187.532 221.587 187.188C221.405 186.839 221.149 186.564 220.82 186.364C220.494 186.163 220.111 186.062 219.672 186.062C219.195 186.062 218.778 186.18 218.422 186.415C218.07 186.646 217.797 186.949 217.604 187.324C217.414 187.695 217.32 188.098 217.32 188.534V189.528C217.32 190.112 217.422 190.608 217.627 191.017C217.835 191.426 218.125 191.739 218.496 191.955C218.867 192.167 219.301 192.273 219.797 192.273C220.119 192.273 220.413 192.227 220.678 192.136C220.943 192.042 221.172 191.902 221.365 191.716C221.558 191.53 221.706 191.301 221.808 191.028L223.416 191.318C223.288 191.792 223.056 192.206 222.723 192.562C222.394 192.915 221.979 193.189 221.479 193.386C220.983 193.58 220.416 193.676 219.78 193.676ZM226.943 188.318V193.5H225.244V184.773H226.875V186.193H226.983C227.184 185.731 227.498 185.36 227.926 185.08C228.358 184.799 228.901 184.659 229.557 184.659C230.151 184.659 230.672 184.784 231.119 185.034C231.566 185.28 231.913 185.648 232.159 186.136C232.405 186.625 232.528 187.229 232.528 187.949V193.5H230.829V188.153C230.829 187.521 230.665 187.027 230.335 186.67C230.006 186.311 229.553 186.131 228.977 186.131C228.583 186.131 228.233 186.216 227.926 186.386C227.623 186.557 227.382 186.807 227.204 187.136C227.03 187.462 226.943 187.856 226.943 188.318ZM238.716 184.773V186.136H233.949V184.773H238.716ZM235.227 182.682H236.926V190.938C236.926 191.267 236.975 191.515 237.074 191.682C237.172 191.845 237.299 191.956 237.454 192.017C237.613 192.074 237.786 192.102 237.971 192.102C238.108 192.102 238.227 192.093 238.329 192.074C238.432 192.055 238.511 192.04 238.568 192.028L238.875 193.432C238.776 193.47 238.636 193.508 238.454 193.545C238.272 193.587 238.045 193.61 237.772 193.614C237.325 193.621 236.909 193.542 236.522 193.375C236.136 193.208 235.824 192.951 235.585 192.602C235.346 192.254 235.227 191.816 235.227 191.29V182.682ZM246.198 188.318V193.5H244.499V181.864H246.175V186.193H246.283C246.488 185.723 246.8 185.35 247.221 185.074C247.641 184.797 248.191 184.659 248.869 184.659C249.467 184.659 249.99 184.782 250.437 185.028C250.887 185.275 251.236 185.642 251.482 186.131C251.732 186.616 251.857 187.222 251.857 187.949V193.5H250.158V188.153C250.158 187.513 249.994 187.017 249.664 186.665C249.334 186.309 248.876 186.131 248.289 186.131C247.887 186.131 247.528 186.216 247.209 186.386C246.895 186.557 246.647 186.807 246.465 187.136C246.287 187.462 246.198 187.856 246.198 188.318ZM257.721 193.676C256.861 193.676 256.12 193.492 255.499 193.125C254.882 192.754 254.404 192.233 254.067 191.562C253.734 190.888 253.567 190.098 253.567 189.193C253.567 188.299 253.734 187.511 254.067 186.83C254.404 186.148 254.874 185.616 255.476 185.233C256.082 184.85 256.791 184.659 257.601 184.659C258.094 184.659 258.571 184.741 259.033 184.903C259.495 185.066 259.91 185.322 260.277 185.67C260.645 186.019 260.935 186.472 261.147 187.028C261.359 187.581 261.465 188.254 261.465 189.045V189.648H254.527V188.375H259.8C259.8 187.928 259.709 187.532 259.527 187.188C259.346 186.839 259.09 186.564 258.76 186.364C258.435 186.163 258.052 186.062 257.613 186.062C257.135 186.062 256.719 186.18 256.363 186.415C256.01 186.646 255.738 186.949 255.544 187.324C255.355 187.695 255.26 188.098 255.26 188.534V189.528C255.26 190.112 255.363 190.608 255.567 191.017C255.776 191.426 256.065 191.739 256.437 191.955C256.808 192.167 257.241 192.273 257.738 192.273C258.06 192.273 258.353 192.227 258.618 192.136C258.883 192.042 259.113 191.902 259.306 191.716C259.499 191.53 259.647 191.301 259.749 191.028L261.357 191.318C261.228 191.792 260.997 192.206 260.664 192.562C260.334 192.915 259.919 193.189 259.419 193.386C258.923 193.58 258.357 193.676 257.721 193.676ZM263.185 193.5V184.773H264.827V186.159H264.918C265.077 185.689 265.357 185.32 265.759 185.051C266.164 184.778 266.622 184.642 267.134 184.642C267.24 184.642 267.365 184.646 267.509 184.653C267.656 184.661 267.772 184.67 267.855 184.682V186.307C267.787 186.288 267.666 186.267 267.492 186.244C267.317 186.218 267.143 186.205 266.969 186.205C266.567 186.205 266.209 186.29 265.895 186.46C265.584 186.627 265.338 186.86 265.156 187.159C264.975 187.455 264.884 187.792 264.884 188.17V193.5H263.185ZM272.609 193.676C271.749 193.676 271.009 193.492 270.388 193.125C269.77 192.754 269.293 192.233 268.956 191.562C268.623 190.888 268.456 190.098 268.456 189.193C268.456 188.299 268.623 187.511 268.956 186.83C269.293 186.148 269.763 185.616 270.365 185.233C270.971 184.85 271.679 184.659 272.49 184.659C272.982 184.659 273.46 184.741 273.922 184.903C274.384 185.066 274.799 185.322 275.166 185.67C275.534 186.019 275.823 186.472 276.035 187.028C276.248 187.581 276.354 188.254 276.354 189.045V189.648H269.416V188.375H274.689C274.689 187.928 274.598 187.532 274.416 187.188C274.234 186.839 273.979 186.564 273.649 186.364C273.323 186.163 272.941 186.062 272.501 186.062C272.024 186.062 271.607 186.18 271.251 186.415C270.899 186.646 270.626 186.949 270.433 187.324C270.244 187.695 270.149 188.098 270.149 188.534V189.528C270.149 190.112 270.251 190.608 270.456 191.017C270.664 191.426 270.954 191.739 271.325 191.955C271.696 192.167 272.13 192.273 272.626 192.273C272.948 192.273 273.242 192.227 273.507 192.136C273.772 192.042 274.001 191.902 274.195 191.716C274.388 191.53 274.535 191.301 274.638 191.028L276.246 191.318C276.117 191.792 275.886 192.206 275.553 192.562C275.223 192.915 274.808 193.189 274.308 193.386C273.812 193.58 273.246 193.676 272.609 193.676Z" fill="#888888"/>
<path d="M285.381 256.285C284.833 256.351 284.441 256.848 284.506 257.397C284.572 257.945 285.069 258.337 285.618 258.271L285.381 256.285ZM324.957 283.178C325.394 283.516 326.022 283.436 326.36 283L331.873 275.886C332.212 275.45 332.132 274.821 331.695 274.483C331.259 274.145 330.631 274.224 330.292 274.661L325.392 280.984L319.068 276.084C318.632 275.745 318.004 275.825 317.665 276.261C317.327 276.698 317.407 277.326 317.843 277.664L324.957 283.178ZM285.499 257.278C285.618 258.271 285.617 258.271 285.617 258.271C285.617 258.271 285.617 258.271 285.617 258.271C285.617 258.271 285.618 258.271 285.618 258.271C285.62 258.271 285.622 258.271 285.625 258.271C285.631 258.27 285.642 258.269 285.656 258.267C285.684 258.264 285.727 258.259 285.785 258.254C285.9 258.242 286.073 258.226 286.3 258.208C286.752 258.171 287.415 258.128 288.248 258.1C289.914 258.044 292.253 258.051 294.934 258.303C300.318 258.809 306.982 260.292 312.38 264.135L313.54 262.506C307.733 258.371 300.667 256.833 295.121 256.312C292.338 256.05 289.913 256.043 288.181 256.101C287.314 256.13 286.62 256.175 286.14 256.214C285.9 256.233 285.713 256.251 285.585 256.264C285.521 256.27 285.471 256.275 285.437 256.279C285.42 256.281 285.407 256.282 285.397 256.284C285.393 256.284 285.389 256.284 285.386 256.285C285.385 256.285 285.384 256.285 285.383 256.285C285.382 256.285 285.382 256.285 285.382 256.285C285.381 256.285 285.381 256.285 285.499 257.278ZM312.38 264.135C317.814 268.005 320.865 272.623 322.56 276.268C323.407 278.091 323.914 279.669 324.208 280.785C324.355 281.343 324.448 281.784 324.505 282.081C324.533 282.23 324.552 282.342 324.563 282.416C324.569 282.452 324.573 282.479 324.575 282.495C324.576 282.503 324.577 282.509 324.577 282.512C324.578 282.513 324.578 282.514 324.578 282.514C324.578 282.515 324.578 282.514 324.578 282.514C324.578 282.514 324.578 282.514 324.578 282.514C324.578 282.513 324.578 282.513 325.57 282.387C326.562 282.261 326.562 282.261 326.562 282.26C326.561 282.26 326.561 282.26 326.561 282.259C326.561 282.258 326.561 282.257 326.561 282.256C326.561 282.253 326.56 282.25 326.56 282.246C326.559 282.239 326.557 282.228 326.555 282.215C326.552 282.189 326.546 282.153 326.539 282.106C326.524 282.013 326.502 281.879 326.47 281.709C326.406 281.369 326.302 280.882 326.142 280.275C325.822 279.063 325.278 277.371 324.373 275.425C322.563 271.531 319.31 266.615 313.54 262.506L312.38 264.135Z" fill="#D0D5DA"/>
</svg>
