<svg width="56" height="48" viewBox="0 0 56 48" fill="none" xmlns="http://www.w3.org/2000/svg">
<g filter="url(#filter0_d_20_7746)">
<rect x="10" y="2" width="40" height="40" rx="20" fill="white" shape-rendering="crispEdges"/>
<path d="M33.9521 22.6928L27.4319 29.213C27.2481 29.3968 26.9989 29.5 26.7391 29.5C26.4793 29.5 26.2301 29.3968 26.0463 29.213C25.8626 29.0293 25.7594 28.7801 25.7594 28.5203C25.7594 28.2604 25.8626 28.0112 26.0463 27.8275L31.8746 22.0008L26.048 16.1725C25.957 16.0815 25.8848 15.9735 25.8356 15.8547C25.7863 15.7358 25.761 15.6084 25.761 15.4797C25.761 15.3511 25.7863 15.2237 25.8356 15.1048C25.8848 14.9859 25.957 14.8779 26.048 14.787C26.1389 14.696 26.2469 14.6238 26.3658 14.5746C26.4847 14.5253 26.6121 14.5 26.7407 14.5C26.8694 14.5 26.9968 14.5253 27.1157 14.5746C27.2345 14.6238 27.3425 14.696 27.4335 14.787L33.9538 21.3072C34.0448 21.3982 34.1171 21.5062 34.1663 21.6252C34.2155 21.7441 34.2408 21.8716 34.2406 22.0003C34.2405 22.1291 34.2149 22.2565 34.1654 22.3753C34.1159 22.4941 34.0434 22.602 33.9521 22.6928Z" fill="#556170"/>
</g>
<defs>
<filter id="filter0_d_20_7746" x="0" y="0" width="60" height="60" filterUnits="userSpaceOnUse" color-interpolation-filters="sRGB">
<feFlood flood-opacity="0" result="BackgroundImageFix"/>
<feColorMatrix in="SourceAlpha" type="matrix" values="0 0 0 0 0 0 0 0 0 0 0 0 0 0 0 0 0 0 127 0" result="hardAlpha"/>
<feOffset dy="8"/>
<feGaussianBlur stdDeviation="5"/>
<feComposite in2="hardAlpha" operator="out"/>
<feColorMatrix type="matrix" values="0 0 0 0 0 0 0 0 0 0 0 0 0 0 0 0 0 0 0.05 0"/>
<feBlend mode="normal" in2="BackgroundImageFix" result="effect1_dropShadow_20_7746"/>
<feBlend mode="normal" in="SourceGraphic" in2="effect1_dropShadow_20_7746" result="shape"/>
</filter>
</defs>
</svg>
