<svg width="56" height="60" viewBox="0 0 56 60" fill="none" xmlns="http://www.w3.org/2000/svg">
<g filter="url(#filter0_d_20_7738)">
<rect x="10" y="2" width="40" height="40" rx="20" fill="white" shape-rendering="crispEdges"/>
<path d="M32.6405 25.2519C33.1762 24.7273 33.5436 24.055 33.6957 23.3208C33.8478 22.5865 33.7777 21.8236 33.4944 21.1294C33.2111 20.4351 32.7275 19.841 32.1051 19.4228C31.4827 19.0046 30.7499 18.7812 30.0001 18.7812C29.2503 18.7812 28.5174 19.0046 27.8951 19.4228C27.2727 19.841 26.7891 20.4351 26.5058 21.1294C26.2225 21.8236 26.1524 22.5865 26.3045 23.3208C26.4566 24.055 26.8239 24.7273 27.3597 25.2519C26.4526 25.7341 25.6984 26.4604 25.1824 27.3486C25.0719 27.5483 25.0442 27.7834 25.1052 28.0034C25.1663 28.2233 25.3112 28.4104 25.5089 28.5246C25.7065 28.6387 25.9411 28.6707 26.1621 28.6137C26.383 28.5566 26.5728 28.4151 26.6905 28.2196C27.0309 27.6446 27.5151 27.1681 28.0955 26.8372C28.676 26.5062 29.3326 26.3322 30.0008 26.3322C30.669 26.3322 31.3256 26.5062 31.9061 26.8372C32.4865 27.1681 32.9708 27.6446 33.3111 28.2196C33.3671 28.3208 33.4428 28.4099 33.5336 28.4816C33.6244 28.5532 33.7286 28.6061 33.8401 28.6371C33.9516 28.668 34.0682 28.6764 34.1829 28.6619C34.2977 28.6473 34.4085 28.6099 34.5087 28.5521C34.6089 28.4942 34.6965 28.417 34.7665 28.3248C34.8365 28.2327 34.8875 28.1276 34.9164 28.0155C34.9453 27.9035 34.9516 27.7868 34.9349 27.6723C34.9183 27.5578 34.8789 27.4478 34.8193 27.3486C34.3028 26.4602 33.5481 25.7339 32.6405 25.2519ZM27.9679 22.5592C27.9679 22.1573 28.0871 21.7644 28.3104 21.4302C28.5337 21.096 28.8511 20.8356 29.2224 20.6818C29.5937 20.5279 30.0023 20.4877 30.3965 20.5661C30.7908 20.6445 31.1529 20.8381 31.4371 21.1223C31.7213 21.4065 31.9148 21.7686 31.9932 22.1628C32.0716 22.557 32.0314 22.9656 31.8776 23.3369C31.7238 23.7083 31.4633 24.0256 31.1291 24.2489C30.7949 24.4722 30.402 24.5914 30.0001 24.5914C29.4611 24.5914 28.9442 24.3773 28.5631 23.9962C28.182 23.6151 27.9679 23.0982 27.9679 22.5592ZM38.6521 23.2553C38.5606 23.324 38.4565 23.3741 38.3456 23.4026C38.2348 23.4311 38.1194 23.4375 38.0061 23.4214C37.8928 23.4053 37.7838 23.367 37.6853 23.3087C37.5868 23.2505 37.5007 23.1733 37.4321 23.0818C36.8275 22.2769 35.9914 21.66 35.3033 21.5112C35.1204 21.4716 34.9551 21.3742 34.8318 21.2333C34.7086 21.0924 34.6341 20.9155 34.6193 20.7289C34.6044 20.5423 34.6501 20.3559 34.7495 20.1973C34.849 20.0388 34.9968 19.9164 35.1713 19.8485C35.3884 19.7637 35.5819 19.6279 35.7355 19.4525C35.8891 19.2771 35.9981 19.0674 36.0535 18.8409C36.1088 18.6145 36.1088 18.3781 36.0535 18.1516C35.9981 17.9252 35.8891 17.7154 35.7355 17.54C35.5819 17.3647 35.3884 17.2288 35.1713 17.1441C34.9541 17.0593 34.7197 17.0281 34.488 17.0531C34.2562 17.078 34.0339 17.1584 33.8398 17.2875C33.6457 17.4165 33.4855 17.5905 33.3728 17.7945C33.3193 17.8979 33.2457 17.9896 33.1562 18.064C33.0668 18.1385 32.9633 18.1943 32.8519 18.2281C32.7405 18.2618 32.6235 18.273 32.5077 18.2608C32.392 18.2486 32.2798 18.2133 32.178 18.157C32.0761 18.1007 31.9865 18.0246 31.9145 17.9331C31.8426 17.8416 31.7897 17.7366 31.759 17.6243C31.7283 17.5121 31.7204 17.3948 31.7358 17.2794C31.7512 17.164 31.7896 17.0529 31.8486 16.9526C32.0642 16.5715 32.3557 16.2388 32.7052 15.9752C33.0547 15.7116 33.4547 15.5226 33.8803 15.4201C34.3059 15.3175 34.7481 15.3036 35.1793 15.3791C35.6105 15.4546 36.0216 15.618 36.387 15.8591C36.7525 16.1002 37.0644 16.4139 37.3035 16.7806C37.5426 17.1474 37.7037 17.5593 37.7769 17.991C37.85 18.4226 37.8336 18.8647 37.7288 19.2897C37.6239 19.7148 37.4327 20.1137 37.1671 20.4617C37.8062 20.8874 38.3672 21.4199 38.8256 22.036C38.9642 22.2207 39.0238 22.4529 38.9913 22.6815C38.9588 22.9102 38.8368 23.1166 38.6521 23.2553ZM24.6968 21.5134C24.0088 21.6622 23.1727 22.2791 22.5681 23.0847C22.429 23.2694 22.2223 23.3913 21.9934 23.4235C21.7644 23.4558 21.5321 23.3958 21.3474 23.2567C21.1627 23.1176 21.0408 22.9109 21.0085 22.682C20.9763 22.453 21.0363 22.2206 21.1754 22.036C21.6339 21.4201 22.1949 20.8876 22.8338 20.4617C22.5682 20.1137 22.377 19.7148 22.2721 19.2897C22.1673 18.8647 22.1509 18.4226 22.224 17.991C22.2972 17.5593 22.4583 17.1474 22.6974 16.7806C22.9365 16.4139 23.2485 16.1002 23.6139 15.8591C23.9793 15.618 24.3904 15.4546 24.8216 15.3791C25.2528 15.3036 25.695 15.3175 26.1206 15.4201C26.5462 15.5226 26.9462 15.7116 27.2957 15.9752C27.6452 16.2388 27.9367 16.5715 28.1523 16.9526C28.2113 17.0529 28.2497 17.164 28.2651 17.2794C28.2805 17.3948 28.2726 17.5121 28.2419 17.6243C28.2112 17.7366 28.1583 17.8416 28.0864 17.9331C28.0144 18.0246 27.9248 18.1007 27.8229 18.157C27.7211 18.2133 27.6089 18.2486 27.4932 18.2608C27.3774 18.273 27.2604 18.2618 27.149 18.2281C27.0376 18.1943 26.9341 18.1385 26.8447 18.064C26.7552 17.9896 26.6816 17.8979 26.6281 17.7945C26.5154 17.5905 26.3553 17.4165 26.1611 17.2875C25.967 17.1584 25.7447 17.078 25.5129 17.0531C25.2812 17.0281 25.0468 17.0593 24.8296 17.1441C24.6125 17.2288 24.419 17.3647 24.2654 17.54C24.1118 17.7154 24.0028 17.9252 23.9474 18.1516C23.8921 18.3781 23.8921 18.6145 23.9474 18.8409C24.0028 19.0674 24.1118 19.2771 24.2654 19.4525C24.419 19.6279 24.6125 19.7637 24.8296 19.8485C25.0041 19.9164 25.1519 20.0388 25.2514 20.1973C25.3508 20.3559 25.3965 20.5423 25.3816 20.7289C25.3668 20.9155 25.2923 21.0924 25.1691 21.2333C25.0458 21.3742 24.8805 21.4716 24.6976 21.5112L24.6968 21.5134Z" fill="#556170"/>
</g>
<defs>
<filter id="filter0_d_20_7738" x="0" y="0" width="60" height="60" filterUnits="userSpaceOnUse" color-interpolation-filters="sRGB">
<feFlood flood-opacity="0" result="BackgroundImageFix"/>
<feColorMatrix in="SourceAlpha" type="matrix" values="0 0 0 0 0 0 0 0 0 0 0 0 0 0 0 0 0 0 127 0" result="hardAlpha"/>
<feOffset dy="8"/>
<feGaussianBlur stdDeviation="5"/>
<feComposite in2="hardAlpha" operator="out"/>
<feColorMatrix type="matrix" values="0 0 0 0 0 0 0 0 0 0 0 0 0 0 0 0 0 0 0.05 0"/>
<feBlend mode="normal" in2="BackgroundImageFix" result="effect1_dropShadow_20_7738"/>
<feBlend mode="normal" in="SourceGraphic" in2="effect1_dropShadow_20_7738" result="shape"/>
</filter>
</defs>
</svg>
