<svg width="56" height="60" viewBox="0 0 56 60" fill="none" xmlns="http://www.w3.org/2000/svg">
<g filter="url(#filter0_d_20_7740)">
<rect x="10" y="2" width="40" height="40" rx="20" fill="white" shape-rendering="crispEdges"/>
<path d="M36.3854 27.0387C36.5642 27.2176 36.6647 27.4601 36.6647 27.713C36.6647 27.966 36.5642 28.2085 36.3854 28.3874C36.2065 28.5662 35.964 28.6667 35.7111 28.6667C35.4581 28.6667 35.2156 28.5662 35.0367 28.3874L30 23.349L24.9617 28.3858C24.7828 28.5646 24.5403 28.6651 24.2874 28.6651C24.0344 28.6651 23.7919 28.5646 23.613 28.3858C23.4342 28.2069 23.3337 27.9644 23.3337 27.7115C23.3337 27.4585 23.4342 27.216 23.613 27.0371L28.6514 22.0004L23.6146 16.9621C23.4358 16.7832 23.3353 16.5407 23.3353 16.2878C23.3353 16.0348 23.4358 15.7923 23.6146 15.6134C23.7935 15.4346 24.036 15.3341 24.2889 15.3341C24.5419 15.3341 24.7844 15.4346 24.9633 15.6134L30 20.6518L35.0383 15.6127C35.2172 15.4338 35.4597 15.3333 35.7126 15.3333C35.9656 15.3333 36.2081 15.4338 36.387 15.6127C36.5658 15.7915 36.6663 16.0341 36.6663 16.287C36.6663 16.5399 36.5658 16.7824 36.387 16.9613L31.3486 22.0004L36.3854 27.0387Z" fill="#556170"/>
</g>
<defs>
<filter id="filter0_d_20_7740" x="0" y="0" width="60" height="60" filterUnits="userSpaceOnUse" color-interpolation-filters="sRGB">
<feFlood flood-opacity="0" result="BackgroundImageFix"/>
<feColorMatrix in="SourceAlpha" type="matrix" values="0 0 0 0 0 0 0 0 0 0 0 0 0 0 0 0 0 0 127 0" result="hardAlpha"/>
<feOffset dy="8"/>
<feGaussianBlur stdDeviation="5"/>
<feComposite in2="hardAlpha" operator="out"/>
<feColorMatrix type="matrix" values="0 0 0 0 0 0 0 0 0 0 0 0 0 0 0 0 0 0 0.05 0"/>
<feBlend mode="normal" in2="BackgroundImageFix" result="effect1_dropShadow_20_7740"/>
<feBlend mode="normal" in="SourceGraphic" in2="effect1_dropShadow_20_7740" result="shape"/>
</filter>
</defs>
</svg>
