<svg width="31" height="30" viewBox="0 0 31 30" fill="none" xmlns="http://www.w3.org/2000/svg">
<rect x="0.166992" width="30" height="30" rx="15" fill="white"/>
<path d="M22.9256 13.4792C23.276 13.4077 23.5909 13.2174 23.8171 12.9404C24.0433 12.6635 24.1669 12.3169 24.167 11.9593V10.0344C24.167 9.62285 24.0035 9.22816 23.7125 8.93716C23.4215 8.64615 23.0268 8.48267 22.6153 8.48267H7.71872C7.30717 8.48267 6.91249 8.64615 6.62148 8.93716C6.33048 9.22816 6.16699 9.62285 6.16699 10.0344V11.9593C6.1671 12.3169 6.2907 12.6635 6.5169 12.9404C6.7431 13.2174 7.05801 13.4077 7.40837 13.4792C7.75915 13.5504 8.07452 13.7408 8.30104 14.0179C8.52756 14.295 8.65131 14.642 8.65131 14.9999C8.65131 15.3578 8.52756 15.7048 8.30104 15.9819C8.07452 16.2591 7.75915 16.4494 7.40837 16.5206C7.05801 16.5921 6.7431 16.7824 6.5169 17.0594C6.2907 17.3363 6.1671 17.6829 6.16699 18.0405V19.9654C6.16699 20.377 6.33048 20.7717 6.62148 21.0627C6.91249 21.3537 7.30717 21.5171 7.71872 21.5171H22.6153C23.0268 21.5171 23.4215 21.3537 23.7125 21.0627C24.0035 20.7717 24.167 20.377 24.167 19.9654V18.0405C24.1669 17.6829 24.0433 17.3363 23.8171 17.0594C23.5909 16.7824 23.276 16.5921 22.9256 16.5206C22.5748 16.4494 22.2595 16.2591 22.0329 15.9819C21.8064 15.7048 21.6827 15.3578 21.6827 14.9999C21.6827 14.642 21.8064 14.295 22.0329 14.0179C22.2595 13.7408 22.5748 13.5504 22.9256 13.4792ZM8.02906 18.2849C8.74446 18.0826 9.37428 17.6523 9.82279 17.0594C10.2713 16.4665 10.514 15.7434 10.514 14.9999C10.514 14.2565 10.2713 13.5333 9.82279 12.9404C9.37428 12.3475 8.74446 11.9172 8.02906 11.7149V10.3447H11.7532V19.6551H8.02906V18.2849ZM22.3049 18.2849V19.6551H13.6153V10.3447H22.3049V11.7149C21.5895 11.9172 20.9597 12.3475 20.5112 12.9404C20.0627 13.5333 19.82 14.2565 19.82 14.9999C19.82 15.7434 20.0627 16.4665 20.5112 17.0594C20.9597 17.6523 21.5895 18.0826 22.3049 18.2849Z" fill="#556170"/>
</svg>
