<svg width="24" height="24" viewBox="0 0 24 24" fill="none" xmlns="http://www.w3.org/2000/svg">
<path d="M20.9866 8.3534L15.6483 3.01595C15.4849 2.85239 15.2909 2.72263 15.0773 2.6341C14.8637 2.54557 14.6348 2.5 14.4036 2.5C14.1724 2.5 13.9435 2.54557 13.7299 2.6341C13.5164 2.72263 13.3224 2.85239 13.159 3.01595L8.58854 7.60222C7.49519 7.30931 5.36214 7.09909 3.15785 8.87765C2.96535 9.03252 2.80764 9.2262 2.69498 9.44607C2.58231 9.66594 2.51722 9.90708 2.50394 10.1538C2.49067 10.4005 2.5295 10.6472 2.61792 10.8779C2.70633 11.1086 2.84235 11.3181 3.01711 11.4927L7.0158 15.4923L3.51497 18.9931C3.31667 19.1914 3.20527 19.4604 3.20527 19.7408C3.20527 20.0212 3.31667 20.2902 3.51497 20.4885C3.71326 20.6867 3.9822 20.7981 4.26263 20.7981C4.54306 20.7981 4.812 20.6867 5.0103 20.4885L8.51113 16.9867L12.5107 20.9854C12.8403 21.3146 13.2869 21.4997 13.7527 21.5C13.7932 21.5 13.8345 21.5 13.8758 21.4956C14.1269 21.4775 14.3712 21.4056 14.5921 21.285C14.8131 21.1644 15.0055 20.9977 15.1566 20.7963C15.5691 20.2483 16.1241 19.3775 16.4267 18.3334C16.7293 17.2893 16.7302 16.3209 16.4408 15.3955L20.9883 10.833C21.3155 10.5032 21.4989 10.0574 21.4986 9.59285C21.4983 9.1283 21.3142 8.68274 20.9866 8.3534ZM14.4546 14.4042C14.2985 14.561 14.1955 14.7628 14.1603 14.9813C14.1251 15.1997 14.1594 15.4237 14.2585 15.6216C14.5602 16.225 14.8654 17.4688 13.7061 19.1972L4.79567 10.2877C6.65076 9.00431 8.27276 9.7036 8.40206 9.75989C8.59909 9.86219 8.82397 9.89785 9.04298 9.86154C9.26199 9.82522 9.46333 9.71888 9.6168 9.55846L14.4045 4.75494L19.2423 9.59277L14.4546 14.4042Z" fill="#121212"/>
</svg>
