<svg width="24" height="24" viewBox="0 0 24 24" fill="none" xmlns="http://www.w3.org/2000/svg">
<path d="M19.4483 5.48276H4.55172C4.14018 5.48276 3.74549 5.64624 3.45449 5.93725C3.16348 6.22825 3 6.62294 3 7.03448V16.9655C3 17.3771 3.16348 17.7717 3.45449 18.0628C3.74549 18.3538 4.14018 18.5172 4.55172 18.5172H19.4483C19.8598 18.5172 20.2545 18.3538 20.5455 18.0628C20.8365 17.7717 21 17.3771 21 16.9655V7.03448C21 6.62294 20.8365 6.22825 20.5455 5.93725C20.2545 5.64624 19.8598 5.48276 19.4483 5.48276ZM19.1379 7.34483V8.89655H4.86207V7.34483H19.1379ZM4.86207 16.6552V10.7586H19.1379V16.6552H4.86207ZM18.2069 14.7931C18.2069 15.04 18.1088 15.2768 17.9342 15.4514C17.7596 15.626 17.5228 15.7241 17.2759 15.7241H14.7931C14.5462 15.7241 14.3094 15.626 14.1348 15.4514C13.9602 15.2768 13.8621 15.04 13.8621 14.7931C13.8621 14.5462 13.9602 14.3094 14.1348 14.1348C14.3094 13.9602 14.5462 13.8621 14.7931 13.8621H17.2759C17.5228 13.8621 17.7596 13.9602 17.9342 14.1348C18.1088 14.3094 18.2069 14.5462 18.2069 14.7931ZM12.931 14.7931C12.931 15.04 12.8329 15.2768 12.6583 15.4514C12.4837 15.626 12.2469 15.7241 12 15.7241H11.069C10.822 15.7241 10.5852 15.626 10.4106 15.4514C10.236 15.2768 10.1379 15.04 10.1379 14.7931C10.1379 14.5462 10.236 14.3094 10.4106 14.1348C10.5852 13.9602 10.822 13.8621 11.069 13.8621H12C12.2469 13.8621 12.4837 13.9602 12.6583 14.1348C12.8329 14.3094 12.931 14.5462 12.931 14.7931Z" fill="#121212"/>
</svg>
