<svg width="24" height="24" viewBox="0 0 24 24" fill="none" xmlns="http://www.w3.org/2000/svg">
<path d="M12.7544 17.3545C12.855 17.4548 12.9349 17.574 12.9894 17.7052C13.0438 17.8365 13.0719 17.9772 13.0719 18.1193C13.0719 18.2614 13.0438 18.4021 12.9894 18.5333C12.9349 18.6645 12.855 18.7837 12.7544 18.884L12.2199 19.4184C11.2073 20.4311 9.8338 21 8.40166 21C6.96953 21 5.59605 20.4311 4.58338 19.4184C3.57071 18.4057 3.0018 17.0323 3.0018 15.6001C3.0018 14.168 3.57071 12.7945 4.58338 11.7819L6.75343 9.61271C7.72643 8.6373 9.03556 8.07085 10.4127 8.02936C11.7898 7.98788 13.1306 8.47452 14.1606 9.38959C14.2669 9.48411 14.3536 9.59864 14.4156 9.72666C14.4777 9.85468 14.514 9.99366 14.5223 10.1357C14.5307 10.2777 14.511 10.42 14.4643 10.5544C14.4177 10.6888 14.3451 10.8127 14.2505 10.9191C14.156 11.0254 14.0415 11.1121 13.9135 11.1741C13.7854 11.2362 13.6465 11.2725 13.5044 11.2808C13.3624 11.2892 13.2201 11.2695 13.0857 11.2228C12.9513 11.1762 12.8274 11.1035 12.7211 11.009C12.1034 10.4605 11.2996 10.1687 10.4739 10.1933C9.64827 10.2179 8.86319 10.557 8.2793 11.1413L6.11105 13.3077C5.50355 13.9152 5.16225 14.7392 5.16225 15.5983C5.16225 16.4575 5.50355 17.2814 6.11105 17.8889C6.71856 18.4965 7.54252 18.8377 8.40166 18.8377C9.26081 18.8377 10.0848 18.4965 10.6923 17.8889L11.2267 17.3545C11.327 17.2542 11.446 17.1745 11.5771 17.1202C11.7082 17.0659 11.8486 17.0379 11.9905 17.0379C12.1324 17.0379 12.2729 17.0659 12.404 17.1202C12.535 17.1745 12.6541 17.2542 12.7544 17.3545ZM19.4193 4.57895C18.4058 3.56784 17.0326 3 15.601 3C14.1694 3 12.7962 3.56784 11.7827 4.57895L11.2483 5.11337C11.0455 5.31619 10.9315 5.59127 10.9315 5.8781C10.9315 6.16493 11.0455 6.44002 11.2483 6.64284C11.4511 6.84566 11.7262 6.9596 12.013 6.9596C12.2998 6.9596 12.5749 6.84566 12.7777 6.64284L13.3122 6.10842C13.9197 5.50091 14.7436 5.15962 15.6028 5.15962C16.4619 5.15962 17.2859 5.50091 17.8934 6.10842C18.5009 6.71593 18.8422 7.53988 18.8422 8.39903C18.8422 9.25817 18.5009 10.0821 17.8934 10.6896L15.7242 12.8597C15.1398 13.4437 14.3543 13.7824 13.5284 13.8063C12.7026 13.8302 11.8988 13.5376 11.2816 12.9883C11.1752 12.8938 11.0513 12.8212 10.9169 12.7745C10.7825 12.7279 10.6402 12.7082 10.4982 12.7166C10.3562 12.7249 10.2172 12.7612 10.0892 12.8232C9.96115 12.8853 9.84661 12.972 9.7521 13.0783C9.65758 13.1846 9.58493 13.3086 9.5383 13.443C9.49166 13.5774 9.47196 13.7197 9.48032 13.8617C9.48867 14.0037 9.52492 14.1427 9.58699 14.2707C9.64905 14.3987 9.73573 14.5133 9.84206 14.6078C10.8713 15.5226 12.2112 16.0096 13.5877 15.9689C14.9642 15.9283 16.273 15.3632 17.2465 14.3892L19.4166 12.22C20.4288 11.2068 20.9977 9.83321 20.9982 8.40094C20.9987 6.96866 20.4308 5.59471 19.4193 4.58075V4.57895Z" fill="#121212"/>
</svg>
