<svg width="24" height="24" viewBox="0 0 24 24" fill="none" xmlns="http://www.w3.org/2000/svg">
<path d="M12 6.72417C11.3248 6.72417 10.6648 6.92438 10.1034 7.2995C9.54199 7.67462 9.10443 8.20778 8.84604 8.83158C8.58766 9.45537 8.52006 10.1418 8.65178 10.804C8.7835 11.4662 9.10864 12.0745 9.58607 12.5519C10.0635 13.0294 10.6718 13.3545 11.334 13.4862C11.9962 13.6179 12.6826 13.5503 13.3064 13.2919C13.9302 13.0336 14.4634 12.596 14.8385 12.0346C15.2136 11.4732 15.4138 10.8132 15.4138 10.138C15.4128 9.2329 15.0528 8.36518 14.4128 7.72519C13.7728 7.08519 12.9051 6.72519 12 6.72417ZM12 11.6897C11.6931 11.6897 11.3931 11.5987 11.1379 11.4282C10.8827 11.2577 10.6838 11.0154 10.5664 10.7318C10.4489 10.4483 10.4182 10.1363 10.4781 9.83526C10.538 9.53425 10.6857 9.25776 10.9028 9.04074C11.1198 8.82373 11.3963 8.67594 11.6973 8.61607C11.9983 8.55619 12.3103 8.58692 12.5938 8.70437C12.8774 8.82182 13.1197 9.02071 13.2902 9.27589C13.4607 9.53107 13.5517 9.83108 13.5517 10.138C13.5517 10.5495 13.3883 10.9442 13.0972 11.2352C12.8062 11.5262 12.4115 11.6897 12 11.6897ZM12 3C10.1075 3.00205 8.29314 3.75475 6.95495 5.09294C5.61676 6.43112 4.86407 8.24551 4.86201 10.138C4.86201 16.1401 11.1962 20.6432 11.4662 20.8318C11.6227 20.9413 11.809 21 12 21C12.191 21 12.3773 20.9413 12.5338 20.8318C13.7335 19.9476 14.8311 18.9328 15.8064 17.8059C17.9858 15.3029 19.138 12.6495 19.138 10.138C19.1359 8.24551 18.3832 6.43112 17.0451 5.09294C15.7069 3.75475 13.8925 3.00205 12 3ZM14.4285 16.5552C13.6887 17.4049 12.8761 18.1884 12 18.8968C11.1239 18.1884 10.3113 17.4049 9.57154 16.5552C8.27584 15.0547 6.7241 12.7224 6.7241 10.138C6.7241 8.73873 7.27995 7.39678 8.26938 6.40736C9.2588 5.41794 10.6007 4.86208 12 4.86208C13.3993 4.86208 14.7412 5.41794 15.7306 6.40736C16.7201 7.39678 17.2759 8.73873 17.2759 10.138C17.2759 12.7224 15.7242 15.0547 14.4285 16.5552Z" fill="#121212"/>
</svg>
