<svg width="31" height="30" viewBox="0 0 31 30" fill="none" xmlns="http://www.w3.org/2000/svg">
<rect x="0.166992" width="30" height="30" rx="15" fill="white"/>
<path d="M17.8075 18.252C18.3432 17.7274 18.7106 17.0551 18.8627 16.3209C19.0148 15.5866 18.9447 14.8237 18.6614 14.1295C18.3781 13.4352 17.8944 12.8411 17.2721 12.4229C16.6497 12.0046 15.9169 11.7813 15.1671 11.7813C14.4173 11.7813 13.6844 12.0046 13.0621 12.4229C12.4397 12.8411 11.956 13.4352 11.6728 14.1295C11.3895 14.8237 11.3194 15.5866 11.4715 16.3209C11.6236 17.0551 11.9909 17.7274 12.5267 18.252C11.6196 18.7342 10.8654 19.4604 10.3494 20.3487C10.2389 20.5484 10.2111 20.7835 10.2722 21.0034C10.3333 21.2234 10.4782 21.4105 10.6759 21.5247C10.8735 21.6388 11.1081 21.6708 11.329 21.6138C11.55 21.5567 11.7398 21.4152 11.8575 21.2197C12.1979 20.6447 12.6821 20.1682 13.2625 19.8373C13.843 19.5063 14.4996 19.3323 15.1678 19.3323C15.836 19.3323 16.4926 19.5063 17.0731 19.8373C17.6535 20.1682 18.1378 20.6447 18.4781 21.2197C18.5341 21.3209 18.6097 21.41 18.7006 21.4817C18.7914 21.5533 18.8956 21.6062 19.0071 21.6372C19.1186 21.6681 19.2351 21.6765 19.3499 21.6619C19.4647 21.6474 19.5754 21.61 19.6756 21.5522C19.7758 21.4943 19.8635 21.4171 19.9335 21.3249C20.0035 21.2328 20.0545 21.1277 20.0834 21.0156C20.1123 20.9036 20.1186 20.7869 20.1019 20.6724C20.0853 20.5579 20.0459 20.4479 19.9862 20.3487C19.4698 19.4602 18.7151 18.7339 17.8075 18.252ZM13.1349 15.5593C13.1349 15.1574 13.2541 14.7645 13.4774 14.4303C13.7007 14.0961 14.0181 13.8357 14.3894 13.6818C14.7607 13.528 15.1693 13.4878 15.5635 13.5662C15.9577 13.6446 16.3198 13.8382 16.604 14.1224C16.8883 14.4066 17.0818 14.7687 17.1602 15.1629C17.2386 15.5571 17.1984 15.9657 17.0446 16.337C16.8908 16.7083 16.6303 17.0257 16.2961 17.249C15.9619 17.4723 15.569 17.5915 15.1671 17.5915C14.6281 17.5915 14.1112 17.3774 13.7301 16.9963C13.349 16.6152 13.1349 16.0983 13.1349 15.5593ZM23.8191 16.2554C23.7276 16.3241 23.6235 16.3742 23.5126 16.4027C23.4018 16.4312 23.2864 16.4376 23.1731 16.4215C23.0598 16.4054 22.9508 16.3671 22.8523 16.3088C22.7538 16.2505 22.6677 16.1734 22.599 16.0819C21.9945 15.277 21.1584 14.6601 20.4703 14.5113C20.2874 14.4717 20.1221 14.3743 19.9988 14.2334C19.8756 14.0925 19.8011 13.9156 19.7863 13.729C19.7714 13.5424 19.8171 13.356 19.9165 13.1974C20.016 13.0388 20.1638 12.9165 20.3382 12.8486C20.5554 12.7638 20.7489 12.628 20.9025 12.4526C21.0561 12.2772 21.1651 12.0675 21.2205 11.841C21.2758 11.6146 21.2758 11.3781 21.2205 11.1517C21.1651 10.9253 21.056 10.7155 20.9025 10.5401C20.7489 10.3648 20.5554 10.2289 20.3382 10.1442C20.1211 10.0594 19.8867 10.0282 19.655 10.0532C19.4232 10.0781 19.2009 10.1585 19.0068 10.2876C18.8126 10.4166 18.6525 10.5905 18.5398 10.7946C18.4863 10.898 18.4127 10.9896 18.3232 11.0641C18.2338 11.1386 18.1303 11.1944 18.0189 11.2281C17.9075 11.2619 17.7905 11.2731 17.6747 11.2609C17.559 11.2486 17.4468 11.2134 17.345 11.1571C17.2431 11.1008 17.1535 11.0247 17.0815 10.9332C17.0096 10.8417 16.9567 10.7367 16.926 10.6244C16.8953 10.5122 16.8874 10.3949 16.9028 10.2795C16.9182 10.1641 16.9566 10.053 17.0156 9.9527C17.2311 9.57163 17.5227 9.23894 17.8722 8.97529C18.2217 8.71165 18.6217 8.52269 19.0473 8.42014C19.4729 8.3176 19.9151 8.30365 20.3463 8.37919C20.7775 8.45472 21.1886 8.61811 21.554 8.85921C21.9194 9.10032 22.2314 9.41398 22.4705 9.78072C22.7096 10.1475 22.8707 10.5594 22.9438 10.9911C23.017 11.4227 23.0006 11.8648 22.8957 12.2898C22.7909 12.7149 22.5997 13.1138 22.3341 13.4618C22.9732 13.8875 23.5342 14.42 23.9925 15.036C24.1312 15.2207 24.1908 15.453 24.1583 15.6816C24.1258 15.9103 24.0038 16.1167 23.8191 16.2554ZM9.86382 14.5135C9.17578 14.6623 8.33969 15.2792 7.73511 16.0848C7.59604 16.2695 7.3893 16.3914 7.16036 16.4236C6.93142 16.4559 6.69905 16.3959 6.51435 16.2568C6.32966 16.1177 6.20778 15.911 6.17552 15.682C6.14326 15.4531 6.20327 15.2207 6.34235 15.036C6.80092 14.4202 7.36188 13.8877 8.00075 13.4618C7.73519 13.1138 7.54403 12.7149 7.43914 12.2898C7.33425 11.8648 7.31788 11.4227 7.39104 10.9911C7.4642 10.5594 7.62533 10.1475 7.86441 9.78072C8.1035 9.41398 8.41544 9.10032 8.78086 8.85921C9.14628 8.61811 9.55737 8.45472 9.98859 8.37919C10.4198 8.30365 10.862 8.3176 11.2876 8.42014C11.7132 8.52269 12.1132 8.71165 12.4627 8.97529C12.8122 9.23894 13.1037 9.57163 13.3192 9.9527C13.3783 10.053 13.4167 10.1641 13.4321 10.2795C13.4475 10.3949 13.4396 10.5122 13.4089 10.6244C13.3782 10.7367 13.3253 10.8417 13.2534 10.9332C13.1814 11.0247 13.0918 11.1008 12.9899 11.1571C12.888 11.2134 12.7759 11.2486 12.6602 11.2609C12.5444 11.2731 12.4274 11.2619 12.316 11.2281C12.2046 11.1944 12.1011 11.1386 12.0117 11.0641C11.9222 10.9896 11.8486 10.898 11.7951 10.7946C11.6824 10.5905 11.5222 10.4166 11.3281 10.2876C11.134 10.1585 10.9117 10.0781 10.6799 10.0532C10.4481 10.0282 10.2138 10.0594 9.99664 10.1442C9.77949 10.2289 9.58596 10.3648 9.4324 10.5401C9.27884 10.7155 9.16977 10.9253 9.11442 11.1517C9.05908 11.3781 9.05908 11.6146 9.11442 11.841C9.16977 12.0675 9.27884 12.2772 9.4324 12.4526C9.58596 12.628 9.77949 12.7638 9.99664 12.8486C10.171 12.9165 10.3189 13.0388 10.4183 13.1974C10.5178 13.356 10.5635 13.5424 10.5486 13.729C10.5338 13.9156 10.4593 14.0925 10.336 14.2334C10.2128 14.3743 10.0475 14.4717 9.86455 14.5113L9.86382 14.5135Z" fill="#556170"/>
</svg>
