<svg width="24" height="24" viewBox="0 0 24 24" fill="none" xmlns="http://www.w3.org/2000/svg">
<path d="M21 12C21 12.2864 20.8862 12.5611 20.6837 12.7637C20.4811 12.9662 20.2064 13.08 19.92 13.08H4.08C3.79357 13.08 3.51886 12.9662 3.31632 12.7637C3.11379 12.5611 3 12.2864 3 12C3 11.7136 3.11379 11.4389 3.31632 11.2363C3.51886 11.0338 3.79357 10.92 4.08 10.92H19.92C20.2064 10.92 20.4811 11.0338 20.6837 11.2363C20.8862 11.4389 21 11.7136 21 12ZM4.08 7.32H19.92C20.2064 7.32 20.4811 7.20622 20.6837 7.00368C20.8862 6.80114 21 6.52644 21 6.24C21 5.95357 20.8862 5.67887 20.6837 5.47633C20.4811 5.27379 20.2064 5.16 19.92 5.16H4.08C3.79357 5.16 3.51886 5.27379 3.31632 5.47633C3.11379 5.67887 3 5.95357 3 6.24C3 6.52644 3.11379 6.80114 3.31632 7.00368C3.51886 7.20622 3.79357 7.32 4.08 7.32ZM19.92 16.68H4.08C3.79357 16.68 3.51886 16.7938 3.31632 16.9963C3.11379 17.1989 3 17.4736 3 17.76C3 18.0464 3.11379 18.3211 3.31632 18.5237C3.51886 18.7262 3.79357 18.84 4.08 18.84H19.92C20.2064 18.84 20.4811 18.7262 20.6837 18.5237C20.8862 18.3211 21 18.0464 21 17.76C21 17.4736 20.8862 17.1989 20.6837 16.9963C20.4811 16.7938 20.2064 16.68 19.92 16.68Z" fill="#121212"/>
</svg>
