<svg width="24" height="24" viewBox="0 0 24 24" fill="none" xmlns="http://www.w3.org/2000/svg">
<path d="M19.2 3H4.8C4.32261 3 3.86477 3.18964 3.52721 3.52721C3.18964 3.86477 3 4.32261 3 4.8V19.2C3 19.6774 3.18964 20.1352 3.52721 20.4728C3.86477 20.8104 4.32261 21 4.8 21H14.5821C14.8186 21.0006 15.0528 20.9543 15.2712 20.8638C15.4897 20.7733 15.688 20.6403 15.8547 20.4726L20.4726 15.8547C20.6403 15.688 20.7733 15.4897 20.8638 15.2712C20.9543 15.0528 21.0006 14.8186 21 14.5821V4.8C21 4.32261 20.8104 3.86477 20.4728 3.52721C20.1352 3.18964 19.6774 3 19.2 3ZM5.16 5.16H18.84V13.44H14.52C14.2336 13.44 13.9589 13.5538 13.7563 13.7563C13.5538 13.9589 13.44 14.2336 13.44 14.52V18.84H5.16V5.16ZM15.6 17.67V15.6H17.67L15.6 17.67Z" fill="#121212"/>
</svg>
