<svg width="31" height="30" viewBox="0 0 31 30" fill="none" xmlns="http://www.w3.org/2000/svg">
<path d="M26.1627 9.21672L21.3284 4.38345C20.9226 3.97785 20.3725 3.75 19.7988 3.75C19.2251 3.75 18.6749 3.97785 18.2692 4.38345L4.92899 17.7225C4.7274 17.9229 4.56757 18.1613 4.45876 18.4238C4.34995 18.6864 4.29431 18.9679 4.29508 19.2521V24.0865C4.29508 24.6603 4.52302 25.2106 4.92876 25.6163C5.33449 26.0221 5.88479 26.25 6.45859 26.25H24.632C24.9763 26.25 25.3065 26.1132 25.5499 25.8698C25.7934 25.6264 25.9301 25.2962 25.9301 24.9519C25.9301 24.6076 25.7934 24.2774 25.5499 24.034C25.3065 23.7906 24.9763 23.6538 24.632 23.6538H14.7881L26.1627 12.277C26.3637 12.0761 26.5232 11.8375 26.6319 11.575C26.7407 11.3125 26.7967 11.031 26.7967 10.7469C26.7967 10.4627 26.7407 10.1813 26.6319 9.91872C26.5232 9.65617 26.3637 9.41763 26.1627 9.21672ZM11.1101 23.6538H6.89129V19.435L15.978 10.3482L20.1969 14.5671L11.1101 23.6538ZM22.0358 12.7281L17.817 8.50925L19.8009 6.52532L24.0198 10.7442L22.0358 12.7281Z" fill="white"/>
</svg>
