<svg width="31" height="30" viewBox="0 0 31 30" fill="none" xmlns="http://www.w3.org/2000/svg">
<rect x="0.166992" width="30" height="30" rx="15" fill="white"/>
<path d="M23.6604 10.3734L19.7929 6.50676C19.4683 6.18228 19.0282 6 18.5692 6C18.1103 6 17.6701 6.18228 17.3455 6.50676L6.67339 17.178C6.51212 17.3383 6.38426 17.529 6.29721 17.7391C6.21016 17.9491 6.16565 18.1743 6.16627 18.4017V22.2692C6.16627 22.7282 6.34862 23.1685 6.67321 23.4931C6.9978 23.8176 7.43803 24 7.89707 24H22.4358C22.7113 24 22.9754 23.8906 23.1701 23.6958C23.3649 23.5011 23.4743 23.2369 23.4743 22.9615C23.4743 22.6861 23.3649 22.422 23.1701 22.2272C22.9754 22.0324 22.7113 21.923 22.4358 21.923H14.5607L23.6604 12.8216C23.8212 12.6609 23.9487 12.47 24.0357 12.26C24.1228 12.05 24.1676 11.8248 24.1676 11.5975C24.1676 11.3701 24.1228 11.145 24.0357 10.935C23.9487 10.7249 23.8212 10.5341 23.6604 10.3734ZM11.6183 21.923H8.24323V18.548L15.5126 11.2786L18.8877 14.6537L11.6183 21.923ZM20.3589 13.1825L16.9838 9.8074L18.5709 8.22025L21.946 11.5953L20.3589 13.1825Z" fill="#556170"/>
</svg>
