<svg width="17" height="17" viewBox="0 0 17 17" fill="none" xmlns="http://www.w3.org/2000/svg">
<path d="M14.1579 5.81893L10.599 2.26063C10.4901 2.15158 10.3608 2.06508 10.2184 2.00606C10.076 1.94704 9.92341 1.91666 9.76928 1.91666C9.61516 1.91666 9.46254 1.94704 9.32017 2.00606C9.17779 2.06508 9.04844 2.15158 8.93952 2.26063L5.89256 5.31814C5.16366 5.12286 3.74163 4.98271 2.2721 6.16842C2.14378 6.27167 2.03863 6.40079 1.96352 6.54737C1.88841 6.69395 1.84502 6.85471 1.83617 7.01918C1.82732 7.18364 1.85321 7.34813 1.91215 7.50193C1.9711 7.65572 2.06177 7.79538 2.17828 7.9118L4.84407 10.5782L2.51018 12.9121C2.37799 13.0443 2.30372 13.2236 2.30372 13.4105C2.30372 13.5975 2.37799 13.7768 2.51018 13.909C2.64238 14.0412 2.82168 14.1154 3.00863 14.1154C3.19558 14.1154 3.37488 14.0412 3.50707 13.909L5.84096 11.5745L8.50734 14.2403C8.72704 14.4597 9.02481 14.5831 9.33534 14.5833C9.36232 14.5833 9.38988 14.5833 9.41744 14.5804C9.58482 14.5683 9.74766 14.5204 9.89496 14.44C10.0422 14.3596 10.1706 14.2485 10.2712 14.1142C10.5463 13.7489 10.9163 13.1683 11.118 12.4723C11.3197 11.7762 11.3203 11.1306 11.1274 10.5137L14.1591 7.472C14.3772 7.25213 14.4995 6.95492 14.4993 6.64522C14.4991 6.33552 14.3763 6.03849 14.1579 5.81893ZM9.80329 9.8528C9.69918 9.9573 9.63054 10.0919 9.60708 10.2375C9.58361 10.3831 9.60651 10.5325 9.67252 10.6644C9.87366 11.0667 10.0771 11.8958 9.30426 13.0481L3.36399 7.10843C4.60072 6.25286 5.68204 6.71906 5.76825 6.75659C5.8996 6.82478 6.04952 6.84856 6.19553 6.82435C6.34154 6.80014 6.47576 6.72924 6.57807 6.6223L9.76987 3.41995L12.9951 6.64517L9.80329 9.8528Z" fill="#121212"/>
</svg>
