<svg width="24" height="24" viewBox="0 0 24 24" fill="none" xmlns="http://www.w3.org/2000/svg">
<path d="M21 12C21 12.2864 20.8862 12.5611 20.6837 12.7637C20.4811 12.9662 20.2064 13.08 19.92 13.08H13.08V19.92C13.08 20.2064 12.9662 20.4811 12.7637 20.6837C12.5611 20.8862 12.2864 21 12 21C11.7136 21 11.4389 20.8862 11.2363 20.6837C11.0338 20.4811 10.92 20.2064 10.92 19.92V13.08H4.08C3.79357 13.08 3.51886 12.9662 3.31632 12.7637C3.11379 12.5611 3 12.2864 3 12C3 11.7136 3.11379 11.4389 3.31632 11.2363C3.51886 11.0338 3.79357 10.92 4.08 10.92H10.92V4.08C10.92 3.79357 11.0338 3.51886 11.2363 3.31632C11.4389 3.11379 11.7136 3 12 3C12.2864 3 12.5611 3.11379 12.7637 3.31632C12.9662 3.51886 13.08 3.79357 13.08 4.08V10.92H19.92C20.2064 10.92 20.4811 11.0338 20.6837 11.2363C20.8862 11.4389 21 11.7136 21 12Z" fill="#121212"/>
</svg>
