<svg width="24" height="24" viewBox="0 0 24 24" fill="none" xmlns="http://www.w3.org/2000/svg">
<path d="M7.66671 6V4C7.66671 3.73478 7.77207 3.48043 7.9596 3.29289C8.14714 3.10536 8.40149 3 8.66671 3C8.93193 3 9.18628 3.10536 9.37382 3.29289C9.56135 3.48043 9.66671 3.73478 9.66671 4V6C9.66671 6.26522 9.56135 6.51957 9.37382 6.70711C9.18628 6.89464 8.93193 7 8.66671 7C8.40149 7 8.14714 6.89464 7.9596 6.70711C7.77207 6.51957 7.66671 6.26522 7.66671 6ZM12 7C12.2653 7 12.5196 6.89464 12.7072 6.70711C12.8947 6.51957 13 6.26522 13 6V4C13 3.73478 12.8947 3.48043 12.7072 3.29289C12.5196 3.10536 12.2653 3 12 3C11.7348 3 11.4805 3.10536 11.2929 3.29289C11.1054 3.48043 11 3.73478 11 4V6C11 6.26522 11.1054 6.51957 11.2929 6.70711C11.4805 6.89464 11.7348 7 12 7ZM15.3334 7C15.5986 7 15.8529 6.89464 16.0405 6.70711C16.228 6.51957 16.3334 6.26522 16.3334 6V4C16.3334 3.73478 16.228 3.48043 16.0405 3.29289C15.8529 3.10536 15.5986 3 15.3334 3C15.0682 3 14.8138 3.10536 14.6263 3.29289C14.4387 3.48043 14.3334 3.73478 14.3334 4V6C14.3334 6.26522 14.4387 6.51957 14.6263 6.70711C14.8138 6.89464 15.0682 7 15.3334 7ZM22.2667 11.4667L20 13.1667V18C20 18.7956 19.684 19.5587 19.1214 20.1213C18.5588 20.6839 17.7957 21 17 21H7.00004C6.2044 21 5.44133 20.6839 4.87872 20.1213C4.31612 19.5587 4.00004 18.7956 4.00004 18V13.1667L1.73338 11.4667C1.5212 11.3075 1.38094 11.0706 1.34343 10.8081C1.30592 10.5455 1.37425 10.2788 1.53338 10.0667C1.69251 9.85449 1.92941 9.71422 2.19196 9.67672C2.45451 9.63921 2.72121 9.70754 2.93338 9.86667L4.00004 10.6667V10C4.00004 9.55797 4.17564 9.13405 4.4882 8.82149C4.80076 8.50893 5.22468 8.33333 5.66671 8.33333H18.3334C18.7754 8.33333 19.1993 8.50893 19.5119 8.82149C19.8244 9.13405 20 9.55797 20 10V10.6667L21.0667 9.86667C21.2789 9.70754 21.5456 9.63921 21.8081 9.67672C22.0707 9.71422 22.3076 9.85449 22.4667 10.0667C22.6258 10.2788 22.6942 10.5455 22.6567 10.8081C22.6192 11.0706 22.4789 11.3075 22.2667 11.4667ZM18 10.3333H6.00004V18C6.00004 18.2652 6.1054 18.5196 6.29294 18.7071C6.48047 18.8946 6.73483 19 7.00004 19H17C17.2653 19 17.5196 18.8946 17.7072 18.7071C17.8947 18.5196 18 18.2652 18 18V10.3333Z" fill="#121212"/>
</svg>
