<svg width="24" height="24" viewBox="0 0 24 24" fill="none" xmlns="http://www.w3.org/2000/svg">
<path d="M11.9992 7.96478C11.2011 7.96478 10.421 8.20145 9.75738 8.64484C9.09379 9.08824 8.57658 9.71845 8.27117 10.4558C7.96575 11.1931 7.88584 12.0045 8.04154 12.7872C8.19724 13.57 8.58156 14.289 9.14589 14.8533C9.71023 15.4177 10.4292 15.802 11.212 15.9577C11.9947 16.1134 12.8061 16.0335 13.5434 15.7281C14.2808 15.4226 14.911 14.9054 15.3544 14.2419C15.7978 13.5783 16.0344 12.7981 16.0344 12C16.0332 10.9302 15.6077 9.90452 14.8512 9.14803C14.0947 8.39155 13.0691 7.96602 11.9992 7.96478ZM11.9992 14.1728C11.5695 14.1728 11.1494 14.0454 10.7921 13.8066C10.4348 13.5679 10.1563 13.2285 9.99181 12.8315C9.82735 12.4345 9.78432 11.9976 9.86816 11.5761C9.952 11.1546 10.1589 10.7675 10.4628 10.4636C10.7667 10.1597 11.1538 9.95278 11.5753 9.86894C11.9968 9.7851 12.4337 9.82813 12.8307 9.99259C13.2278 10.157 13.5671 10.4355 13.8058 10.7929C14.0446 11.1502 14.172 11.5703 14.172 12C14.172 12.5763 13.9431 13.1289 13.5356 13.5364C13.1282 13.9439 12.5755 14.1728 11.9992 14.1728ZM20.8348 10.3262C20.8085 10.195 20.7543 10.071 20.6759 9.9627C20.5974 9.85437 20.4965 9.76422 20.3801 9.69838L18.2235 8.46841L18.215 6.03874C18.2145 5.90394 18.1848 5.77084 18.1279 5.64865C18.0709 5.52646 17.9881 5.41809 17.8852 5.33103C17.0162 4.59575 16.0155 4.03197 14.9364 3.6696C14.8133 3.62808 14.6829 3.61277 14.5535 3.62467C14.4241 3.63656 14.2987 3.6754 14.1852 3.73867L11.9992 4.95932L9.81322 3.73789C9.69961 3.67427 9.57392 3.63518 9.44427 3.62315C9.31461 3.61112 9.18387 3.62642 9.0605 3.66805C7.98104 4.03193 6.98041 4.59728 6.11168 5.33413C6.0091 5.4211 5.92657 5.52925 5.86977 5.65115C5.81298 5.77305 5.78326 5.90581 5.78266 6.0403L5.77179 8.47229L3.61838 9.69915C3.50191 9.76524 3.40107 9.85568 3.32273 9.96428C3.24438 10.0729 3.19039 10.1971 3.16442 10.3285C2.94519 11.4328 2.94519 12.5695 3.16442 13.6738C3.19059 13.8049 3.24468 13.9289 3.32302 14.0372C3.40135 14.1455 3.50209 14.2357 3.61838 14.3016L5.77723 15.5316L5.78576 17.9613C5.78623 18.0961 5.81596 18.2292 5.87291 18.3514C5.92985 18.4735 6.01264 18.5819 6.11556 18.669C6.98461 19.4043 7.98523 19.968 9.06438 20.3304C9.18748 20.3719 9.3179 20.3872 9.44727 20.3753C9.57664 20.3634 9.70209 20.3246 9.81555 20.2613L11.9992 19.0407L14.1829 20.2621C14.2965 20.3257 14.4222 20.3648 14.5519 20.3769C14.6815 20.3889 14.8122 20.3736 14.9356 20.332C16.0151 19.9681 17.0157 19.4027 17.8844 18.6659C17.987 18.5789 18.0695 18.4708 18.1263 18.3489C18.1831 18.227 18.2129 18.0942 18.2135 17.9597L18.2243 15.5277L20.3824 14.3009C20.4989 14.2348 20.5997 14.1443 20.678 14.0357C20.7564 13.9271 20.8104 13.8029 20.8364 13.6715C21.0551 12.5671 21.0545 11.4304 20.8348 10.3262ZM19.0787 12.9009L16.9928 14.0867C16.8446 14.1707 16.7224 14.2939 16.6397 14.4429C16.5978 14.5205 16.5536 14.5926 16.5078 14.6664C16.4158 14.8132 16.3667 14.9828 16.3658 15.156L16.3549 17.5096C15.8529 17.8874 15.3031 18.1971 14.7199 18.4307L12.613 17.252C12.4741 17.1742 12.3175 17.1333 12.1583 17.1333H12.1358C12.0473 17.1333 11.9573 17.1333 11.8689 17.1333C11.7024 17.1293 11.538 17.1698 11.3924 17.2504L9.28321 18.4269C8.699 18.1944 8.14795 17.886 7.64429 17.5096L7.63575 15.163C7.63504 14.9895 7.58585 14.8196 7.49375 14.6726C7.44874 14.5996 7.40373 14.5243 7.36182 14.4491C7.27905 14.3011 7.15717 14.1786 7.00952 14.0952L4.92207 12.9025C4.84098 12.3041 4.84098 11.6975 4.92207 11.0991L7.00797 9.91333C7.15592 9.82934 7.27803 9.70642 7.36105 9.55792C7.40295 9.48032 7.44719 9.40738 7.49297 9.33365C7.58494 9.18682 7.63412 9.01725 7.63498 8.844L7.64351 6.49038C8.14571 6.11369 8.69548 5.80501 9.27855 5.57237L11.3854 6.75111C11.5309 6.83276 11.6958 6.87352 11.8626 6.86907C11.9511 6.86907 12.0411 6.86907 12.1296 6.86907C12.296 6.873 12.4605 6.83256 12.6061 6.75189L14.7152 5.57314C15.2994 5.8056 15.8505 6.114 16.3542 6.49038L16.3627 8.83701C16.3634 9.01053 16.4126 9.18039 16.5047 9.32745C16.5497 9.40039 16.5947 9.47566 16.6366 9.55094C16.7194 9.69896 16.8413 9.82137 16.9889 9.90479L19.0764 11.0944C19.1585 11.6937 19.1593 12.3014 19.0787 12.9009Z" fill="#121212"/>
</svg>
