<svg width="24" height="24" viewBox="0 0 24 24" fill="none" xmlns="http://www.w3.org/2000/svg">
<path d="M12 3C10.22 3 8.47991 3.52784 6.99987 4.51677C5.51983 5.50571 4.36628 6.91131 3.68509 8.55585C3.0039 10.2004 2.82567 12.01 3.17294 13.7558C3.5202 15.5016 4.37737 17.1053 5.63604 18.364C6.89471 19.6226 8.49836 20.4798 10.2442 20.8271C11.99 21.1743 13.7996 20.9961 15.4442 20.3149C17.0887 19.6337 18.4943 18.4802 19.4832 17.0001C20.4722 15.5201 21 13.78 21 12C20.9974 9.61386 20.0483 7.32622 18.361 5.63896C16.6738 3.95171 14.3861 3.00265 12 3ZM12 19C10.6155 19 9.26216 18.5895 8.11101 17.8203C6.95987 17.0511 6.06266 15.9579 5.53285 14.6788C5.00303 13.3997 4.86441 11.9922 5.13451 10.6344C5.4046 9.2765 6.07129 8.02922 7.05026 7.05025C8.02922 6.07128 9.2765 5.4046 10.6344 5.1345C11.9922 4.86441 13.3997 5.00303 14.6788 5.53284C15.9579 6.06266 17.0511 6.95986 17.8203 8.11101C18.5895 9.26215 19 10.6155 19 12C18.998 13.8559 18.2599 15.6352 16.9476 16.9476C15.6352 18.2599 13.8559 18.998 12 19ZM17.6667 12C17.6667 12.2652 17.5613 12.5196 17.3738 12.7071C17.1862 12.8946 16.9319 13 16.6667 13H12C11.7348 13 11.4804 12.8946 11.2929 12.7071C11.1054 12.5196 11 12.2652 11 12V7.33333C11 7.06812 11.1054 6.81376 11.2929 6.62623C11.4804 6.43869 11.7348 6.33333 12 6.33333C12.2652 6.33333 12.5196 6.43869 12.7071 6.62623C12.8946 6.81376 13 7.06812 13 7.33333V11H16.6667C16.9319 11 17.1862 11.1054 17.3738 11.2929C17.5613 11.4804 17.6667 11.7348 17.6667 12Z" fill="#121212"/>
</svg>
