<svg width="24" height="24" viewBox="0 0 24 24" fill="none" xmlns="http://www.w3.org/2000/svg">
<path d="M12 2.5C10.1211 2.5 8.28435 3.05717 6.72209 4.10104C5.15982 5.14491 3.94218 6.62861 3.22315 8.36451C2.50412 10.1004 2.31598 12.0105 2.68254 13.8534C3.0491 15.6962 3.95389 17.3889 5.28249 18.7175C6.61109 20.0461 8.30383 20.9509 10.1466 21.3175C11.9895 21.684 13.8996 21.4959 15.6355 20.7769C17.3714 20.0578 18.8551 18.8402 19.899 17.2779C20.9428 15.7156 21.5 13.8789 21.5 12C21.4972 9.4813 20.4954 7.06656 18.7144 5.28557C16.9334 3.50458 14.5187 2.50279 12 2.5ZM12 19.3889C10.5386 19.3889 9.11005 18.9555 7.89496 18.1436C6.67986 17.3317 5.73281 16.1777 5.17356 14.8276C4.61431 13.4775 4.46799 11.9918 4.75309 10.5585C5.03819 9.12519 5.74192 7.80862 6.77527 6.77527C7.80862 5.74191 9.1252 5.03819 10.5585 4.75309C11.9918 4.46798 13.4775 4.61431 14.8276 5.17356C16.1777 5.7328 17.3317 6.67986 18.1436 7.89495C18.9555 9.11005 19.3889 10.5386 19.3889 12C19.3868 13.959 18.6077 15.8372 17.2224 17.2224C15.8372 18.6076 13.959 19.3868 12 19.3889Z" fill="#121212"/>
</svg>
