<svg width="31" height="30" viewBox="0 0 31 30" fill="none" xmlns="http://www.w3.org/2000/svg">
<rect x="0.166992" width="30" height="30" rx="15" fill="white"/>
<path d="M21.8337 7.33333H20.1671V7C20.1671 6.73478 20.0617 6.48043 19.8742 6.29289C19.6866 6.10536 19.4323 6 19.1671 6C18.9019 6 18.6475 6.10536 18.46 6.29289C18.2724 6.48043 18.1671 6.73478 18.1671 7V7.33333H12.1671V7C12.1671 6.73478 12.0617 6.48043 11.8742 6.29289C11.6866 6.10536 11.4323 6 11.1671 6C10.9019 6 10.6475 6.10536 10.46 6.29289C10.2724 6.48043 10.1671 6.73478 10.1671 7V7.33333H8.50041C8.05838 7.33333 7.63446 7.50893 7.3219 7.82149C7.00933 8.13405 6.83374 8.55797 6.83374 9V22.3333C6.83374 22.7754 7.00933 23.1993 7.3219 23.5118C7.63446 23.8244 8.05838 24 8.50041 24H21.8337C22.2758 24 22.6997 23.8244 23.0123 23.5118C23.3248 23.1993 23.5004 22.7754 23.5004 22.3333V9C23.5004 8.55797 23.3248 8.13405 23.0123 7.82149C22.6997 7.50893 22.2758 7.33333 21.8337 7.33333ZM10.1671 9.33333C10.1671 9.59855 10.2724 9.8529 10.46 10.0404C10.6475 10.228 10.9019 10.3333 11.1671 10.3333C11.4323 10.3333 11.6866 10.228 11.8742 10.0404C12.0617 9.8529 12.1671 9.59855 12.1671 9.33333H18.1671C18.1671 9.59855 18.2724 9.8529 18.46 10.0404C18.6475 10.228 18.9019 10.3333 19.1671 10.3333C19.4323 10.3333 19.6866 10.228 19.8742 10.0404C20.0617 9.8529 20.1671 9.59855 20.1671 9.33333H21.5004V11.3333H8.83374V9.33333H10.1671ZM8.83374 22V13.3333H21.5004V22H8.83374ZM18.8746 14.9592C18.9678 15.0521 19.0418 15.1625 19.0922 15.284C19.1427 15.4056 19.1687 15.5359 19.1687 15.6675C19.1687 15.7991 19.1427 15.9294 19.0922 16.051C19.0418 16.1725 18.9678 16.2829 18.8746 16.3758L14.8746 20.3758C14.7817 20.4691 14.6713 20.543 14.5497 20.5935C14.4282 20.644 14.2979 20.67 14.1662 20.67C14.0346 20.67 13.9043 20.644 13.7828 20.5935C13.6612 20.543 13.5508 20.4691 13.4579 20.3758L11.4579 18.3758C11.27 18.188 11.1645 17.9332 11.1645 17.6675C11.1645 17.4018 11.27 17.147 11.4579 16.9592C11.6458 16.7713 11.9006 16.6658 12.1662 16.6658C12.4319 16.6658 12.6867 16.7713 12.8746 16.9592L14.1671 18.25L17.4596 14.9567C17.5526 14.8639 17.663 14.7903 17.7845 14.7402C17.906 14.6901 18.0362 14.6644 18.1676 14.6646C18.299 14.6649 18.4291 14.691 18.5504 14.7415C18.6717 14.7921 18.7819 14.866 18.8746 14.9592Z" fill="#556170"/>
</svg>
