<svg width="24" height="24" viewBox="0 0 24 24" fill="none" xmlns="http://www.w3.org/2000/svg">
<path d="M18.6666 4.33333H17V4C17 3.73478 16.8946 3.48043 16.7071 3.29289C16.5195 3.10536 16.2652 3 16 3C15.7347 3 15.4804 3.10536 15.2929 3.29289C15.1053 3.48043 15 3.73478 15 4V4.33333H8.99996V4C8.99996 3.73478 8.8946 3.48043 8.70707 3.29289C8.51953 3.10536 8.26518 3 7.99996 3C7.73474 3 7.48039 3.10536 7.29285 3.29289C7.10532 3.48043 6.99996 3.73478 6.99996 4V4.33333H5.33329C4.89127 4.33333 4.46734 4.50893 4.15478 4.82149C3.84222 5.13405 3.66663 5.55797 3.66663 6V19.3333C3.66663 19.7754 3.84222 20.1993 4.15478 20.5118C4.46734 20.8244 4.89127 21 5.33329 21H18.6666C19.1087 21 19.5326 20.8244 19.8451 20.5118C20.1577 20.1993 20.3333 19.7754 20.3333 19.3333V6C20.3333 5.55797 20.1577 5.13405 19.8451 4.82149C19.5326 4.50893 19.1087 4.33333 18.6666 4.33333ZM6.99996 6.33333C6.99996 6.59855 7.10532 6.8529 7.29285 7.04044C7.48039 7.22798 7.73474 7.33333 7.99996 7.33333C8.26518 7.33333 8.51953 7.22798 8.70707 7.04044C8.8946 6.8529 8.99996 6.59855 8.99996 6.33333H15C15 6.59855 15.1053 6.8529 15.2929 7.04044C15.4804 7.22798 15.7347 7.33333 16 7.33333C16.2652 7.33333 16.5195 7.22798 16.7071 7.04044C16.8946 6.8529 17 6.59855 17 6.33333H18.3333V8.33333H5.66663V6.33333H6.99996ZM5.66663 19V10.3333H18.3333V19H5.66663ZM15.7075 11.9592C15.8007 12.0521 15.8747 12.1625 15.9251 12.284C15.9756 12.4056 16.0016 12.5359 16.0016 12.6675C16.0016 12.7991 15.9756 12.9294 15.9251 13.051C15.8747 13.1725 15.8007 13.2829 15.7075 13.3758L11.7075 17.3758C11.6146 17.4691 11.5042 17.543 11.3826 17.5935C11.2611 17.644 11.1307 17.67 10.9991 17.67C10.8675 17.67 10.7372 17.644 10.6156 17.5935C10.4941 17.543 10.3837 17.4691 10.2908 17.3758L8.29079 15.3758C8.10293 15.188 7.99739 14.9332 7.99739 14.6675C7.99739 14.4018 8.10293 14.147 8.29079 13.9592C8.47865 13.7713 8.73345 13.6658 8.99913 13.6658C9.2648 13.6658 9.5196 13.7713 9.70746 13.9592L11 15.25L14.2925 11.9567C14.3855 11.8639 14.4959 11.7903 14.6174 11.7402C14.7389 11.6901 14.8691 11.6644 15.0005 11.6646C15.1319 11.6649 15.262 11.691 15.3833 11.7415C15.5046 11.7921 15.6147 11.866 15.7075 11.9592Z" fill="#121212"/>
</svg>
