<svg width="24" height="24" viewBox="0 0 24 24" fill="none" xmlns="http://www.w3.org/2000/svg">
<path d="M19.1999 6.27273H4.79993C4.53954 6.27273 4.28981 6.37617 4.10568 6.56029C3.92156 6.74442 3.81812 6.99415 3.81812 7.25455C3.81812 7.51494 3.92156 7.76467 4.10568 7.9488C4.28981 8.13292 4.53954 8.23636 4.79993 8.23636H5.12721V19.3636C5.12721 19.7976 5.29961 20.2138 5.60649 20.5207C5.91336 20.8276 6.32958 21 6.76357 21H17.2363C17.6703 21 18.0865 20.8276 18.3934 20.5207C18.7003 20.2138 18.8727 19.7976 18.8727 19.3636V8.23636H19.1999C19.4603 8.23636 19.7101 8.13292 19.8942 7.9488C20.0783 7.76467 20.1818 7.51494 20.1818 7.25455C20.1818 6.99415 20.0783 6.74442 19.8942 6.56029C19.7101 6.37617 19.4603 6.27273 19.1999 6.27273ZM16.909 19.0364H7.09084V8.23636H16.909V19.0364ZM7.74539 3.98182C7.74539 3.72142 7.84883 3.47169 8.03296 3.28757C8.21708 3.10344 8.46681 3 8.72721 3H15.2727C15.5331 3 15.7828 3.10344 15.9669 3.28757C16.151 3.47169 16.2545 3.72142 16.2545 3.98182C16.2545 4.24221 16.151 4.49194 15.9669 4.67607C15.7828 4.8602 15.5331 4.96364 15.2727 4.96364H8.72721C8.46681 4.96364 8.21708 4.8602 8.03296 4.67607C7.84883 4.49194 7.74539 4.24221 7.74539 3.98182Z" fill="#121212"/>
</svg>
